<svg xmlns="http://www.w3.org/2000/svg" xmlns:xlink="http://www.w3.org/1999/xlink" width="1280" zoomAndPan="magnify" viewBox="0 0 960 540.000001" height="720" preserveAspectRatio="xMidYMid meet" version="1.0"><defs><g/><clipPath id="0181c82c75"><path d="M 191.621094 0 L 730.621094 0 L 730.621094 539 L 191.621094 539 Z M 191.621094 0 " clip-rule="nonzero"/></clipPath></defs><g clip-path="url(#0181c82c75)"><path fill="#000000" d="M 407.222656 179.667969 C 407.222656 179.078125 407.164062 178.492188 407.046875 177.914062 C 406.933594 177.335938 406.761719 176.773438 406.539062 176.230469 C 406.3125 175.683594 406.035156 175.167969 405.707031 174.675781 C 405.378906 174.183594 405.007812 173.730469 404.589844 173.3125 C 404.171875 172.898438 403.71875 172.523438 403.230469 172.195312 C 402.738281 171.871094 402.222656 171.59375 401.675781 171.367188 C 401.128906 171.140625 400.570312 170.972656 399.992188 170.855469 C 399.410156 170.742188 398.828125 170.683594 398.238281 170.683594 L 344.335938 170.683594 C 343.746094 170.683594 343.164062 170.742188 342.585938 170.855469 C 342.007812 170.972656 341.445312 171.140625 340.898438 171.367188 C 340.355469 171.59375 339.835938 171.871094 339.347656 172.195312 C 338.855469 172.523438 338.402344 172.898438 337.984375 173.3125 C 337.566406 173.730469 337.195312 174.183594 336.867188 174.675781 C 336.539062 175.167969 336.261719 175.683594 336.039062 176.230469 C 335.8125 176.773438 335.640625 177.335938 335.527344 177.914062 C 335.410156 178.492188 335.355469 179.078125 335.355469 179.667969 L 335.355469 233.566406 C 335.355469 234.15625 335.410156 234.742188 335.527344 235.320312 C 335.640625 235.898438 335.8125 236.460938 336.039062 237.003906 C 336.261719 237.550781 336.539062 238.070312 336.867188 238.558594 C 337.195312 239.050781 337.566406 239.503906 337.984375 239.921875 C 338.402344 240.335938 338.855469 240.710938 339.347656 241.039062 C 339.835938 241.367188 340.355469 241.640625 340.898438 241.867188 C 341.445312 242.09375 342.007812 242.261719 342.585938 242.378906 C 343.164062 242.492188 343.746094 242.550781 344.335938 242.550781 L 398.238281 242.550781 C 398.828125 242.550781 399.410156 242.492188 399.992188 242.378906 C 400.570312 242.261719 401.128906 242.09375 401.675781 241.867188 C 402.222656 241.640625 402.738281 241.367188 403.230469 241.039062 C 403.71875 240.710938 404.171875 240.335938 404.589844 239.921875 C 405.007812 239.503906 405.378906 239.050781 405.707031 238.558594 C 406.035156 238.070312 406.3125 237.550781 406.539062 237.003906 C 406.761719 236.460938 406.933594 235.898438 407.046875 235.320312 C 407.164062 234.742188 407.222656 234.15625 407.222656 233.566406 Z M 389.253906 224.585938 L 353.320312 224.585938 L 353.320312 188.652344 L 389.253906 188.652344 Z M 434.171875 170.683594 C 433.582031 170.683594 432.996094 170.742188 432.417969 170.855469 C 431.839844 170.972656 431.277344 171.140625 430.734375 171.367188 C 430.1875 171.59375 429.671875 171.871094 429.179688 172.195312 C 428.6875 172.523438 428.234375 172.898438 427.816406 173.3125 C 427.402344 173.730469 427.027344 174.183594 426.699219 174.675781 C 426.375 175.167969 426.097656 175.683594 425.871094 176.230469 C 425.644531 176.773438 425.476562 177.335938 425.359375 177.914062 C 425.246094 178.492188 425.1875 179.078125 425.1875 179.667969 L 425.1875 233.566406 C 425.1875 234.15625 425.246094 234.742188 425.359375 235.320312 C 425.476562 235.898438 425.644531 236.460938 425.871094 237.003906 C 426.097656 237.550781 426.375 238.070312 426.699219 238.558594 C 427.027344 239.050781 427.402344 239.503906 427.816406 239.921875 C 428.234375 240.335938 428.6875 240.710938 429.179688 241.039062 C 429.671875 241.367188 430.1875 241.640625 430.734375 241.867188 C 431.277344 242.09375 431.839844 242.261719 432.417969 242.378906 C 432.996094 242.492188 433.582031 242.550781 434.171875 242.550781 L 488.070312 242.550781 C 488.660156 242.550781 489.246094 242.492188 489.824219 242.378906 C 490.402344 242.261719 490.964844 242.09375 491.507812 241.867188 C 492.054688 241.640625 492.574219 241.367188 493.0625 241.039062 C 493.554688 240.710938 494.007812 240.335938 494.425781 239.921875 C 494.839844 239.503906 495.214844 239.050781 495.542969 238.558594 C 495.867188 238.070312 496.144531 237.550781 496.371094 237.003906 C 496.597656 236.460938 496.765625 235.898438 496.882812 235.320312 C 496.996094 234.742188 497.054688 234.15625 497.054688 233.566406 L 497.054688 179.667969 C 497.054688 179.078125 496.996094 178.492188 496.882812 177.914062 C 496.765625 177.335938 496.597656 176.773438 496.371094 176.230469 C 496.144531 175.683594 495.871094 175.167969 495.542969 174.675781 C 495.214844 174.183594 494.839844 173.730469 494.425781 173.3125 C 494.007812 172.898438 493.554688 172.523438 493.0625 172.195312 C 492.574219 171.871094 492.054688 171.59375 491.507812 171.367188 C 490.964844 171.140625 490.402344 170.972656 489.824219 170.855469 C 489.246094 170.742188 488.660156 170.683594 488.070312 170.683594 Z M 479.089844 224.585938 L 443.15625 224.585938 L 443.15625 188.652344 L 479.089844 188.652344 Z M 317.386719 269.5 C 317.386719 268.910156 317.332031 268.328125 317.214844 267.75 C 317.101562 267.167969 316.929688 266.609375 316.703125 266.0625 C 316.480469 265.519531 316.203125 265 315.875 264.507812 C 315.546875 264.019531 315.175781 263.566406 314.757812 263.148438 C 314.339844 262.730469 313.886719 262.359375 313.394531 262.03125 C 312.90625 261.703125 312.386719 261.425781 311.84375 261.199219 C 311.296875 260.976562 310.734375 260.804688 310.15625 260.691406 C 309.578125 260.574219 308.992188 260.515625 308.402344 260.515625 L 254.503906 260.515625 C 253.914062 260.515625 253.328125 260.574219 252.75 260.691406 C 252.171875 260.804688 251.609375 260.976562 251.066406 261.199219 C 250.519531 261.425781 250.003906 261.703125 249.511719 262.03125 C 249.023438 262.359375 248.566406 262.730469 248.152344 263.148438 C 247.734375 263.566406 247.363281 264.019531 247.035156 264.507812 C 246.707031 265 246.429688 265.519531 246.203125 266.0625 C 245.976562 266.609375 245.808594 267.167969 245.691406 267.75 C 245.578125 268.328125 245.519531 268.910156 245.519531 269.5 L 245.519531 323.402344 C 245.519531 323.992188 245.578125 324.574219 245.691406 325.152344 C 245.808594 325.734375 245.976562 326.292969 246.203125 326.839844 C 246.429688 327.382812 246.707031 327.902344 247.035156 328.394531 C 247.363281 328.882812 247.734375 329.335938 248.152344 329.753906 C 248.566406 330.171875 249.023438 330.542969 249.511719 330.871094 C 250.003906 331.199219 250.519531 331.476562 251.066406 331.703125 C 251.609375 331.925781 252.171875 332.097656 252.75 332.210938 C 253.328125 332.328125 253.914062 332.382812 254.503906 332.382812 L 308.402344 332.382812 C 308.992188 332.382812 309.578125 332.328125 310.15625 332.210938 C 310.734375 332.097656 311.296875 331.925781 311.84375 331.703125 C 312.386719 331.476562 312.90625 331.199219 313.394531 330.871094 C 313.886719 330.542969 314.339844 330.171875 314.757812 329.753906 C 315.175781 329.335938 315.546875 328.882812 315.875 328.390625 C 316.203125 327.902344 316.480469 327.382812 316.703125 326.839844 C 316.929688 326.292969 317.101562 325.730469 317.214844 325.152344 C 317.332031 324.574219 317.386719 323.992188 317.386719 323.402344 Z M 299.421875 314.417969 L 263.488281 314.417969 L 263.488281 278.484375 L 299.421875 278.484375 Z M 407.222656 269.5 C 407.222656 268.910156 407.164062 268.328125 407.046875 267.75 C 406.933594 267.167969 406.761719 266.609375 406.539062 266.0625 C 406.3125 265.519531 406.035156 265 405.707031 264.507812 C 405.378906 264.019531 405.007812 263.566406 404.589844 263.148438 C 404.171875 262.730469 403.71875 262.359375 403.230469 262.03125 C 402.738281 261.703125 402.222656 261.425781 401.675781 261.199219 C 401.128906 260.976562 400.570312 260.804688 399.992188 260.691406 C 399.410156 260.574219 398.828125 260.515625 398.238281 260.515625 L 344.335938 260.515625 C 343.746094 260.515625 343.164062 260.574219 342.585938 260.691406 C 342.007812 260.804688 341.445312 260.976562 340.898438 261.199219 C 340.355469 261.425781 339.835938 261.703125 339.347656 262.03125 C 338.855469 262.359375 338.402344 262.730469 337.984375 263.148438 C 337.566406 263.566406 337.195312 264.019531 336.867188 264.507812 C 336.539062 265 336.261719 265.519531 336.039062 266.0625 C 335.8125 266.609375 335.640625 267.167969 335.527344 267.75 C 335.410156 268.328125 335.355469 268.910156 335.355469 269.5 L 335.355469 323.402344 C 335.355469 323.992188 335.410156 324.574219 335.527344 325.152344 C 335.640625 325.730469 335.8125 326.292969 336.039062 326.839844 C 336.261719 327.382812 336.539062 327.902344 336.867188 328.390625 C 337.195312 328.882812 337.566406 329.335938 337.984375 329.753906 C 338.402344 330.171875 338.855469 330.542969 339.347656 330.871094 C 339.835938 331.199219 340.355469 331.476562 340.898438 331.703125 C 341.445312 331.925781 342.007812 332.097656 342.585938 332.210938 C 343.164062 332.328125 343.746094 332.382812 344.335938 332.382812 L 398.238281 332.382812 C 398.828125 332.382812 399.410156 332.328125 399.992188 332.210938 C 400.570312 332.097656 401.128906 331.925781 401.675781 331.703125 C 402.222656 331.476562 402.738281 331.199219 403.230469 330.871094 C 403.71875 330.542969 404.171875 330.171875 404.589844 329.753906 C 405.007812 329.335938 405.378906 328.882812 405.707031 328.394531 C 406.035156 327.902344 406.3125 327.382812 406.539062 326.839844 C 406.761719 326.292969 406.933594 325.734375 407.046875 325.152344 C 407.164062 324.574219 407.222656 323.992188 407.222656 323.402344 Z M 389.253906 314.417969 L 353.320312 314.417969 L 353.320312 278.484375 L 389.253906 278.484375 Z M 308.402344 350.351562 L 254.503906 350.351562 C 253.914062 350.351562 253.328125 350.410156 252.75 350.523438 C 252.171875 350.636719 251.609375 350.808594 251.066406 351.035156 C 250.519531 351.261719 250.003906 351.535156 249.511719 351.863281 C 249.023438 352.191406 248.566406 352.566406 248.152344 352.980469 C 247.734375 353.398438 247.363281 353.851562 247.035156 354.34375 C 246.707031 354.832031 246.429688 355.351562 246.203125 355.894531 C 245.976562 356.441406 245.808594 357.003906 245.691406 357.582031 C 245.578125 358.160156 245.519531 358.746094 245.519531 359.335938 L 245.519531 413.234375 C 245.519531 413.824219 245.578125 414.410156 245.691406 414.988281 C 245.808594 415.566406 245.976562 416.128906 246.203125 416.671875 C 246.429688 417.21875 246.707031 417.734375 247.035156 418.226562 C 247.363281 418.714844 247.734375 419.171875 248.152344 419.585938 C 248.566406 420.003906 249.023438 420.378906 249.511719 420.703125 C 250.003906 421.03125 250.519531 421.308594 251.066406 421.535156 C 251.609375 421.761719 252.171875 421.929688 252.75 422.046875 C 253.328125 422.160156 253.914062 422.21875 254.503906 422.21875 L 308.402344 422.21875 C 308.992188 422.21875 309.578125 422.160156 310.15625 422.046875 C 310.734375 421.929688 311.296875 421.761719 311.84375 421.535156 C 312.386719 421.308594 312.90625 421.03125 313.394531 420.703125 C 313.886719 420.378906 314.339844 420.003906 314.757812 419.585938 C 315.175781 419.171875 315.546875 418.714844 315.875 418.226562 C 316.203125 417.734375 316.480469 417.21875 316.703125 416.671875 C 316.929688 416.128906 317.101562 415.566406 317.214844 414.988281 C 317.332031 414.410156 317.386719 413.824219 317.386719 413.234375 L 317.386719 359.335938 C 317.386719 358.746094 317.332031 358.160156 317.214844 357.582031 C 317.101562 357.003906 316.929688 356.441406 316.703125 355.894531 C 316.480469 355.351562 316.203125 354.832031 315.875 354.34375 C 315.546875 353.851562 315.175781 353.398438 314.757812 352.980469 C 314.339844 352.566406 313.886719 352.191406 313.394531 351.863281 C 312.90625 351.535156 312.386719 351.261719 311.84375 351.035156 C 311.296875 350.808594 310.734375 350.636719 310.15625 350.523438 C 309.578125 350.410156 308.992188 350.351562 308.402344 350.351562 Z M 299.421875 404.25 L 263.488281 404.25 L 263.488281 368.316406 L 299.421875 368.316406 Z M 398.238281 350.351562 L 344.335938 350.351562 C 343.746094 350.351562 343.164062 350.410156 342.585938 350.523438 C 342.007812 350.636719 341.445312 350.808594 340.898438 351.035156 C 340.355469 351.261719 339.835938 351.535156 339.347656 351.863281 C 338.855469 352.191406 338.402344 352.566406 337.984375 352.980469 C 337.566406 353.398438 337.195312 353.851562 336.867188 354.34375 C 336.539062 354.832031 336.261719 355.351562 336.039062 355.894531 C 335.8125 356.441406 335.640625 357.003906 335.527344 357.582031 C 335.410156 358.160156 335.355469 358.746094 335.355469 359.335938 L 335.355469 413.234375 C 335.355469 413.824219 335.410156 414.410156 335.527344 414.988281 C 335.640625 415.566406 335.8125 416.128906 336.039062 416.671875 C 336.261719 417.21875 336.539062 417.734375 336.867188 418.226562 C 337.195312 418.714844 337.566406 419.171875 337.984375 419.585938 C 338.402344 420.003906 338.855469 420.378906 339.347656 420.703125 C 339.835938 421.03125 340.355469 421.308594 340.898438 421.535156 C 341.445312 421.761719 342.007812 421.929688 342.585938 422.046875 C 343.164062 422.160156 343.746094 422.21875 344.335938 422.21875 L 398.238281 422.21875 C 398.828125 422.21875 399.410156 422.160156 399.992188 422.046875 C 400.570312 421.929688 401.128906 421.761719 401.675781 421.535156 C 402.222656 421.308594 402.738281 421.03125 403.230469 420.703125 C 403.71875 420.378906 404.171875 420.003906 404.589844 419.585938 C 405.007812 419.171875 405.378906 418.714844 405.707031 418.226562 C 406.035156 417.734375 406.3125 417.21875 406.539062 416.671875 C 406.761719 416.128906 406.933594 415.566406 407.046875 414.988281 C 407.164062 414.410156 407.222656 413.824219 407.222656 413.234375 L 407.222656 359.335938 C 407.222656 358.746094 407.164062 358.160156 407.046875 357.582031 C 406.933594 357.003906 406.761719 356.441406 406.539062 355.894531 C 406.3125 355.351562 406.035156 354.832031 405.707031 354.34375 C 405.378906 353.851562 405.007812 353.398438 404.589844 352.980469 C 404.171875 352.566406 403.71875 352.191406 403.230469 351.863281 C 402.738281 351.535156 402.222656 351.261719 401.675781 351.035156 C 401.128906 350.808594 400.570312 350.636719 399.992188 350.523438 C 399.410156 350.410156 398.828125 350.351562 398.238281 350.351562 Z M 389.253906 404.25 L 353.320312 404.25 L 353.320312 368.316406 L 389.253906 368.316406 Z M 577.90625 233.566406 C 575.40625 233.566406 572.90625 233.628906 570.410156 233.75 C 567.914062 233.875 565.421875 234.058594 562.9375 234.304688 C 560.449219 234.546875 557.96875 234.855469 555.496094 235.21875 C 553.023438 235.585938 550.5625 236.015625 548.109375 236.5 C 545.660156 236.988281 543.222656 237.535156 540.796875 238.144531 C 538.375 238.75 535.964844 239.417969 533.574219 240.144531 C 531.183594 240.867188 528.808594 241.652344 526.457031 242.496094 C 524.101562 243.335938 521.773438 244.234375 519.460938 245.191406 C 517.152344 246.148438 514.871094 247.160156 512.609375 248.230469 C 510.351562 249.296875 508.117188 250.421875 505.914062 251.601562 C 503.710938 252.777344 501.535156 254.011719 499.394531 255.292969 C 497.25 256.578125 495.136719 257.917969 493.058594 259.304688 C 490.980469 260.695312 488.9375 262.132812 486.929688 263.621094 C 484.925781 265.109375 482.953125 266.648438 481.023438 268.234375 C 479.089844 269.816406 477.199219 271.449219 475.347656 273.128906 C 473.496094 274.808594 471.683594 276.53125 469.917969 278.296875 C 468.148438 280.066406 466.425781 281.875 464.75 283.726562 C 463.070312 285.578125 461.4375 287.46875 459.851562 289.402344 C 458.265625 291.332031 456.730469 293.304688 455.242188 295.3125 C 453.753906 297.320312 452.3125 299.363281 450.925781 301.441406 C 449.535156 303.519531 448.199219 305.628906 446.914062 307.773438 C 445.628906 309.917969 444.398438 312.089844 443.21875 314.292969 C 442.042969 316.5 440.917969 318.730469 439.851562 320.988281 C 438.78125 323.25 437.769531 325.53125 436.8125 327.84375 C 435.855469 330.152344 434.957031 332.484375 434.113281 334.835938 C 433.273438 337.1875 432.488281 339.5625 431.765625 341.953125 C 431.039062 344.34375 430.371094 346.753906 429.765625 349.175781 C 429.15625 351.601562 428.609375 354.039062 428.121094 356.492188 C 427.632812 358.941406 427.207031 361.402344 426.839844 363.875 C 426.472656 366.347656 426.167969 368.828125 425.921875 371.316406 C 425.679688 373.804688 425.496094 376.292969 425.371094 378.792969 C 425.25 381.289062 425.1875 383.785156 425.1875 386.285156 C 425.1875 388.785156 425.25 391.28125 425.371094 393.777344 C 425.496094 396.273438 425.679688 398.765625 425.921875 401.253906 C 426.167969 403.742188 426.472656 406.21875 426.839844 408.691406 C 427.207031 411.164062 427.632812 413.628906 428.121094 416.078125 C 428.609375 418.53125 429.15625 420.96875 429.765625 423.390625 C 430.371094 425.816406 431.039062 428.222656 431.765625 430.617188 C 432.488281 433.007812 433.273438 435.378906 434.113281 437.734375 C 434.957031 440.085938 435.855469 442.417969 436.8125 444.726562 C 437.769531 447.035156 438.78125 449.320312 439.851562 451.578125 C 440.917969 453.839844 442.042969 456.070312 443.21875 458.273438 C 444.398438 460.480469 445.628906 462.652344 446.914062 464.796875 C 448.199219 466.941406 449.535156 469.050781 450.925781 471.128906 C 452.3125 473.207031 453.753906 475.25 455.242188 477.257812 C 456.730469 479.265625 458.265625 481.234375 459.851562 483.167969 C 461.4375 485.097656 463.070312 486.992188 464.75 488.84375 C 466.425781 490.695312 468.148438 492.503906 469.917969 494.273438 C 471.683594 496.039062 473.496094 497.761719 475.347656 499.441406 C 477.199219 501.117188 479.089844 502.75 481.023438 504.335938 C 482.953125 505.921875 484.925781 507.460938 486.929688 508.949219 C 488.9375 510.4375 490.980469 511.875 493.058594 513.265625 C 495.136719 514.652344 497.25 515.988281 499.394531 517.273438 C 501.535156 518.558594 503.710938 519.789062 505.914062 520.96875 C 508.117188 522.148438 510.351562 523.269531 512.609375 524.339844 C 514.871094 525.40625 517.152344 526.421875 519.460938 527.375 C 521.773438 528.332031 524.101562 529.234375 526.457031 530.074219 C 528.808594 530.917969 531.183594 531.699219 533.574219 532.425781 C 535.964844 533.152344 538.375 533.816406 540.796875 534.425781 C 543.222656 535.03125 545.660156 535.578125 548.109375 536.066406 C 550.5625 536.554688 553.023438 536.980469 555.496094 537.347656 C 557.96875 537.714844 560.449219 538.023438 562.9375 538.265625 C 565.421875 538.511719 567.914062 538.695312 570.410156 538.816406 C 572.90625 538.941406 575.40625 539 577.90625 539 C 580.402344 539 582.902344 538.941406 585.398438 538.816406 C 587.894531 538.695312 590.386719 538.511719 592.875 538.265625 C 595.359375 538.019531 597.839844 537.714844 600.3125 537.347656 C 602.785156 536.980469 605.246094 536.554688 607.699219 536.066406 C 610.148438 535.578125 612.585938 535.03125 615.011719 534.425781 C 617.4375 533.816406 619.84375 533.152344 622.238281 532.425781 C 624.628906 531.699219 627 530.917969 629.355469 530.074219 C 631.707031 529.234375 634.039062 528.332031 636.347656 527.375 C 638.65625 526.421875 640.941406 525.40625 643.199219 524.339844 C 645.460938 523.269531 647.691406 522.148438 649.894531 520.96875 C 652.097656 519.789062 654.273438 518.558594 656.417969 517.273438 C 658.5625 515.988281 660.671875 514.652344 662.75 513.265625 C 664.828125 511.875 666.871094 510.4375 668.878906 508.949219 C 670.886719 507.460938 672.855469 505.921875 674.789062 504.335938 C 676.71875 502.75 678.613281 501.117188 680.464844 499.441406 C 682.316406 497.761719 684.125 496.039062 685.890625 494.273438 C 687.660156 492.503906 689.382812 490.695312 691.0625 488.84375 C 692.738281 486.992188 694.371094 485.097656 695.957031 483.167969 C 697.542969 481.234375 699.078125 479.265625 700.570312 477.257812 C 702.058594 475.25 703.496094 473.207031 704.882812 471.128906 C 706.273438 469.050781 707.609375 466.941406 708.894531 464.796875 C 710.179688 462.652344 711.410156 460.480469 712.589844 458.273438 C 713.769531 456.070312 714.890625 453.839844 715.960938 451.578125 C 717.027344 449.320312 718.039062 447.035156 718.996094 444.726562 C 719.953125 442.417969 720.851562 440.085938 721.695312 437.734375 C 722.535156 435.378906 723.320312 433.007812 724.046875 430.617188 C 724.773438 428.222656 725.4375 425.816406 726.046875 423.390625 C 726.652344 420.96875 727.199219 418.53125 727.6875 416.078125 C 728.175781 413.628906 728.601562 411.164062 728.96875 408.691406 C 729.335938 406.21875 729.640625 403.742188 729.886719 401.253906 C 730.132812 398.765625 730.316406 396.273438 730.4375 393.777344 C 730.5625 391.28125 730.621094 388.785156 730.621094 386.285156 C 730.621094 383.785156 730.554688 381.289062 730.429688 378.792969 C 730.304688 376.296875 730.117188 373.808594 729.871094 371.320312 C 729.625 368.835938 729.316406 366.355469 728.945312 363.886719 C 728.578125 361.414062 728.148438 358.953125 727.660156 356.503906 C 727.171875 354.050781 726.621094 351.617188 726.011719 349.191406 C 725.402344 346.769531 724.734375 344.363281 724.007812 341.972656 C 723.28125 339.582031 722.496094 337.210938 721.652344 334.859375 C 720.808594 332.507812 719.910156 330.175781 718.953125 327.867188 C 717.996094 325.5625 716.980469 323.277344 715.910156 321.019531 C 714.84375 318.761719 713.71875 316.53125 712.539062 314.328125 C 711.359375 312.125 710.128906 309.953125 708.84375 307.808594 C 707.558594 305.667969 706.222656 303.558594 704.832031 301.480469 C 703.445312 299.402344 702.003906 297.359375 700.515625 295.355469 C 699.027344 293.347656 697.488281 291.378906 695.90625 289.449219 C 694.320312 287.515625 692.6875 285.625 691.007812 283.773438 C 689.332031 281.921875 687.609375 280.113281 685.84375 278.347656 C 684.074219 276.582031 682.265625 274.859375 680.414062 273.179688 C 678.5625 271.5 676.671875 269.871094 674.742188 268.285156 C 672.8125 266.699219 670.839844 265.164062 668.835938 263.671875 C 666.828125 262.183594 664.785156 260.746094 662.710938 259.355469 C 660.632812 257.96875 658.523438 256.632812 656.378906 255.347656 C 654.238281 254.0625 652.066406 252.828125 649.863281 251.648438 C 647.660156 250.472656 645.429688 249.347656 643.167969 248.277344 C 640.910156 247.207031 638.628906 246.195312 636.320312 245.238281 C 634.011719 244.28125 631.683594 243.378906 629.332031 242.535156 C 626.980469 241.695312 624.609375 240.910156 622.21875 240.179688 C 619.828125 239.453125 617.421875 238.785156 614.996094 238.179688 C 612.574219 237.570312 610.136719 237.019531 607.6875 236.53125 C 605.238281 236.039062 602.777344 235.613281 600.304688 235.242188 C 597.832031 234.875 595.355469 234.566406 592.867188 234.316406 C 590.382812 234.070312 587.890625 233.882812 585.394531 233.757812 C 582.902344 233.632812 580.402344 233.570312 577.90625 233.566406 Z M 577.90625 521.035156 C 575.699219 521.035156 573.496094 520.980469 571.292969 520.871094 C 569.089844 520.765625 566.890625 520.601562 564.695312 520.386719 C 562.503906 520.171875 560.3125 519.898438 558.132812 519.578125 C 555.953125 519.253906 553.78125 518.875 551.617188 518.445312 C 549.453125 518.015625 547.300781 517.53125 545.164062 516.996094 C 543.023438 516.460938 540.898438 515.871094 538.789062 515.234375 C 536.679688 514.59375 534.585938 513.902344 532.507812 513.15625 C 530.433594 512.414062 528.375 511.621094 526.339844 510.777344 C 524.300781 509.933594 522.285156 509.039062 520.292969 508.097656 C 518.296875 507.15625 516.328125 506.164062 514.382812 505.125 C 512.4375 504.085938 510.519531 502.996094 508.628906 501.863281 C 506.738281 500.730469 504.875 499.550781 503.042969 498.324219 C 501.207031 497.101562 499.40625 495.832031 497.632812 494.515625 C 495.863281 493.203125 494.125 491.847656 492.421875 490.449219 C 490.714844 489.050781 489.046875 487.609375 487.410156 486.128906 C 485.777344 484.648438 484.179688 483.128906 482.621094 481.566406 C 481.0625 480.007812 479.542969 478.410156 478.0625 476.777344 C 476.582031 475.144531 475.140625 473.472656 473.742188 471.769531 C 472.34375 470.066406 470.984375 468.328125 469.671875 466.554688 C 468.359375 464.785156 467.089844 462.980469 465.863281 461.148438 C 464.640625 459.3125 463.460938 457.453125 462.324219 455.558594 C 461.191406 453.667969 460.105469 451.75 459.066406 449.804688 C 458.027344 447.859375 457.035156 445.890625 456.09375 443.898438 C 455.148438 441.90625 454.253906 439.890625 453.410156 437.851562 C 452.566406 435.8125 451.773438 433.757812 451.03125 431.679688 C 450.289062 429.605469 449.597656 427.511719 448.957031 425.402344 C 448.316406 423.289062 447.730469 421.164062 447.191406 419.027344 C 446.65625 416.886719 446.175781 414.734375 445.742188 412.574219 C 445.3125 410.410156 444.9375 408.238281 444.613281 406.058594 C 444.289062 403.875 444.019531 401.6875 443.804688 399.492188 C 443.585938 397.296875 443.425781 395.097656 443.316406 392.898438 C 443.207031 390.695312 443.15625 388.488281 443.15625 386.285156 C 443.15625 384.078125 443.207031 381.875 443.316406 379.671875 C 443.425781 377.46875 443.585938 375.273438 443.804688 373.078125 C 444.019531 370.882812 444.289062 368.695312 444.613281 366.511719 C 444.9375 364.332031 445.3125 362.160156 445.742188 359.996094 C 446.175781 357.832031 446.65625 355.683594 447.191406 353.542969 C 447.730469 351.402344 448.316406 349.277344 448.957031 347.167969 C 449.597656 345.058594 450.289062 342.964844 451.03125 340.886719 C 451.773438 338.8125 452.566406 336.753906 453.410156 334.71875 C 454.253906 332.679688 455.148438 330.664062 456.09375 328.671875 C 457.035156 326.679688 458.027344 324.707031 459.066406 322.765625 C 460.105469 320.820312 461.191406 318.902344 462.324219 317.007812 C 463.460938 315.117188 464.640625 313.253906 465.863281 311.421875 C 467.089844 309.585938 468.359375 307.785156 469.671875 306.015625 C 470.984375 304.242188 472.34375 302.503906 473.742188 300.800781 C 475.140625 299.09375 476.582031 297.425781 478.0625 295.792969 C 479.542969 294.15625 481.0625 292.5625 482.621094 291 C 484.179688 289.441406 485.777344 287.921875 487.410156 286.441406 C 489.046875 284.960938 490.714844 283.519531 492.421875 282.121094 C 494.125 280.722656 495.863281 279.367188 497.632812 278.050781 C 499.40625 276.738281 501.207031 275.46875 503.042969 274.242188 C 504.875 273.019531 506.738281 271.839844 508.628906 270.707031 C 510.519531 269.570312 512.4375 268.484375 514.382812 267.445312 C 516.328125 266.40625 518.296875 265.414062 520.292969 264.472656 C 522.285156 263.527344 524.300781 262.636719 526.339844 261.792969 C 528.375 260.949219 530.433594 260.152344 532.507812 259.410156 C 534.585938 258.667969 536.679688 257.976562 538.789062 257.335938 C 540.898438 256.695312 543.023438 256.109375 545.164062 255.574219 C 547.300781 255.035156 549.453125 254.554688 551.617188 254.125 C 553.78125 253.691406 555.953125 253.316406 558.132812 252.992188 C 560.3125 252.667969 562.503906 252.398438 564.695312 252.183594 C 566.890625 251.96875 569.089844 251.804688 571.292969 251.695312 C 573.496094 251.589844 575.699219 251.535156 577.90625 251.535156 C 580.109375 251.535156 582.3125 251.589844 584.515625 251.695312 C 586.71875 251.804688 588.917969 251.96875 591.113281 252.183594 C 593.308594 252.398438 595.496094 252.667969 597.675781 252.992188 C 599.859375 253.316406 602.03125 253.691406 604.195312 254.125 C 606.355469 254.554688 608.507812 255.035156 610.648438 255.574219 C 612.785156 256.109375 614.910156 256.695312 617.019531 257.335938 C 619.132812 257.976562 621.226562 258.667969 623.300781 259.410156 C 625.378906 260.152344 627.433594 260.949219 629.472656 261.792969 C 631.507812 262.636719 633.523438 263.527344 635.519531 264.472656 C 637.511719 265.414062 639.480469 266.40625 641.425781 267.445312 C 643.371094 268.484375 645.289062 269.570312 647.179688 270.707031 C 649.070312 271.839844 650.933594 273.019531 652.769531 274.242188 C 654.601562 275.46875 656.40625 276.738281 658.175781 278.050781 C 659.945312 279.367188 661.683594 280.722656 663.390625 282.121094 C 665.09375 283.519531 666.765625 284.960938 668.398438 286.441406 C 670.03125 287.921875 671.628906 289.441406 673.1875 291 C 674.746094 292.5625 676.265625 294.15625 677.75 295.792969 C 679.230469 297.425781 680.667969 299.09375 682.070312 300.800781 C 683.46875 302.503906 684.824219 304.242188 686.136719 306.015625 C 687.453125 307.785156 688.722656 309.585938 689.945312 311.421875 C 691.171875 313.253906 692.351562 315.117188 693.484375 317.007812 C 694.617188 318.902344 695.703125 320.820312 696.746094 322.765625 C 697.785156 324.707031 698.773438 326.679688 699.71875 328.671875 C 700.660156 330.664062 701.554688 332.679688 702.398438 334.71875 C 703.242188 336.753906 704.035156 338.8125 704.777344 340.886719 C 705.519531 342.964844 706.214844 345.058594 706.851562 347.167969 C 707.492188 349.277344 708.082031 351.402344 708.617188 353.542969 C 709.152344 355.683594 709.636719 357.832031 710.066406 359.996094 C 710.496094 362.160156 710.875 364.332031 711.195312 366.511719 C 711.519531 368.695312 711.789062 370.882812 712.007812 373.078125 C 712.222656 375.273438 712.386719 377.46875 712.492188 379.671875 C 712.601562 381.875 712.65625 384.078125 712.65625 386.285156 C 712.652344 388.488281 712.597656 390.691406 712.484375 392.894531 C 712.375 395.097656 712.210938 397.292969 711.992188 399.488281 C 711.773438 401.679688 711.503906 403.867188 711.175781 406.050781 C 710.851562 408.230469 710.472656 410.402344 710.042969 412.5625 C 709.609375 414.726562 709.125 416.875 708.585938 419.011719 C 708.050781 421.152344 707.460938 423.273438 706.820312 425.382812 C 706.179688 427.492188 705.484375 429.585938 704.742188 431.660156 C 703.996094 433.734375 703.203125 435.792969 702.359375 437.828125 C 701.511719 439.863281 700.617188 441.878906 699.675781 443.871094 C 698.730469 445.863281 697.738281 447.832031 696.699219 449.777344 C 695.660156 451.71875 694.574219 453.636719 693.4375 455.527344 C 692.304688 457.417969 691.125 459.28125 689.898438 461.113281 C 688.675781 462.945312 687.40625 464.746094 686.089844 466.515625 C 684.777344 468.289062 683.421875 470.023438 682.023438 471.730469 C 680.625 473.433594 679.183594 475.101562 677.703125 476.734375 C 676.222656 478.367188 674.703125 479.964844 673.144531 481.523438 C 671.585938 483.082031 669.988281 484.601562 668.355469 486.082031 C 666.722656 487.5625 665.054688 489.003906 663.347656 490.402344 C 661.644531 491.800781 659.910156 493.15625 658.136719 494.472656 C 656.367188 495.785156 654.566406 497.054688 652.734375 498.28125 C 650.898438 499.503906 649.039062 500.683594 647.148438 501.820312 C 645.257812 502.953125 643.339844 504.039062 641.394531 505.078125 C 639.453125 506.121094 637.484375 507.113281 635.492188 508.054688 C 633.5 509 631.484375 509.894531 629.449219 510.738281 C 627.410156 511.582031 625.355469 512.375 623.28125 513.121094 C 621.207031 513.863281 619.113281 514.558594 617.003906 515.199219 C 614.894531 515.839844 612.769531 516.429688 610.632812 516.96875 C 608.496094 517.503906 606.34375 517.988281 604.183594 518.421875 C 602.019531 518.851562 599.851562 519.230469 597.667969 519.558594 C 595.488281 519.882812 593.300781 520.15625 591.109375 520.371094 C 588.914062 520.589844 586.714844 520.753906 584.515625 520.867188 C 582.3125 520.976562 580.109375 521.03125 577.90625 521.035156 Z M 416.203125 458.152344 L 236.539062 458.152344 C 235.65625 458.152344 234.773438 458.105469 233.894531 458.019531 C 233.019531 457.933594 232.148438 457.800781 231.28125 457.628906 C 230.417969 457.457031 229.5625 457.242188 228.71875 456.984375 C 227.871094 456.726562 227.042969 456.429688 226.226562 456.09375 C 225.414062 455.753906 224.617188 455.375 223.839844 454.960938 C 223.0625 454.542969 222.304688 454.089844 221.570312 453.601562 C 220.839844 453.109375 220.128906 452.585938 219.449219 452.023438 C 218.765625 451.464844 218.113281 450.875 217.488281 450.25 C 216.867188 449.625 216.273438 448.972656 215.714844 448.289062 C 215.152344 447.609375 214.628906 446.902344 214.136719 446.167969 C 213.648438 445.433594 213.195312 444.679688 212.777344 443.898438 C 212.363281 443.121094 211.984375 442.324219 211.644531 441.511719 C 211.308594 440.695312 211.011719 439.867188 210.753906 439.019531 C 210.496094 438.175781 210.28125 437.324219 210.109375 436.457031 C 209.9375 435.589844 209.808594 434.71875 209.71875 433.84375 C 209.632812 432.964844 209.589844 432.082031 209.585938 431.203125 L 209.585938 134.75 L 622.820312 134.75 L 622.820312 215.601562 C 622.820312 216.191406 622.878906 216.773438 622.996094 217.351562 C 623.109375 217.933594 623.28125 218.492188 623.503906 219.039062 C 623.730469 219.582031 624.007812 220.101562 624.335938 220.589844 C 624.664062 221.082031 625.035156 221.535156 625.453125 221.953125 C 625.871094 222.371094 626.324219 222.742188 626.8125 223.070312 C 627.304688 223.398438 627.824219 223.675781 628.367188 223.898438 C 628.914062 224.125 629.472656 224.296875 630.050781 224.410156 C 630.632812 224.527344 631.214844 224.585938 631.804688 224.585938 C 632.394531 224.585938 632.980469 224.527344 633.558594 224.410156 C 634.136719 224.296875 634.699219 224.125 635.242188 223.898438 C 635.789062 223.675781 636.304688 223.398438 636.796875 223.070312 C 637.285156 222.742188 637.738281 222.371094 638.15625 221.953125 C 638.574219 221.535156 638.945312 221.082031 639.273438 220.589844 C 639.601562 220.101562 639.878906 219.582031 640.105469 219.039062 C 640.332031 218.492188 640.5 217.933594 640.617188 217.351562 C 640.730469 216.773438 640.789062 216.191406 640.789062 215.601562 L 640.789062 89.832031 C 640.785156 88.363281 640.714844 86.894531 640.566406 85.433594 C 640.421875 83.96875 640.203125 82.515625 639.917969 81.074219 C 639.628906 79.632812 639.269531 78.207031 638.84375 76.800781 C 638.414062 75.394531 637.917969 74.011719 637.355469 72.652344 C 636.792969 71.292969 636.164062 69.96875 635.46875 68.671875 C 634.777344 67.375 634.019531 66.113281 633.203125 64.890625 C 632.386719 63.667969 631.511719 62.488281 630.578125 61.351562 C 629.644531 60.214844 628.65625 59.128906 627.617188 58.089844 C 626.578125 57.046875 625.488281 56.0625 624.351562 55.128906 C 623.214844 54.195312 622.035156 53.320312 620.8125 52.503906 C 619.589844 51.683594 618.332031 50.929688 617.035156 50.234375 C 615.738281 49.542969 614.410156 48.914062 613.050781 48.351562 C 611.695312 47.785156 610.3125 47.289062 608.90625 46.863281 C 607.496094 46.433594 606.074219 46.078125 604.632812 45.789062 C 603.1875 45.5 601.734375 45.285156 600.273438 45.136719 C 598.808594 44.992188 597.34375 44.917969 595.871094 44.917969 L 568.921875 44.917969 L 568.921875 26.949219 C 568.921875 26.066406 568.878906 25.1875 568.792969 24.308594 C 568.707031 23.429688 568.574219 22.558594 568.402344 21.691406 C 568.230469 20.828125 568.015625 19.972656 567.761719 19.125 C 567.503906 18.28125 567.207031 17.453125 566.871094 16.636719 C 566.53125 15.820312 566.15625 15.023438 565.738281 14.246094 C 565.324219 13.46875 564.871094 12.710938 564.378906 11.976562 C 563.890625 11.242188 563.363281 10.535156 562.804688 9.851562 C 562.246094 9.171875 561.652344 8.519531 561.027344 7.894531 C 560.402344 7.269531 559.75 6.675781 559.070312 6.117188 C 558.386719 5.558594 557.679688 5.03125 556.945312 4.542969 C 556.210938 4.050781 555.453125 3.597656 554.675781 3.183594 C 553.898438 2.765625 553.101562 2.390625 552.285156 2.050781 C 551.46875 1.714844 550.640625 1.417969 549.792969 1.160156 C 548.949219 0.902344 548.09375 0.691406 547.230469 0.519531 C 546.363281 0.34375 545.492188 0.214844 544.613281 0.128906 C 543.734375 0.0429688 542.855469 0 541.972656 0 C 541.089844 0 540.207031 0.0429688 539.328125 0.128906 C 538.453125 0.214844 537.578125 0.34375 536.714844 0.519531 C 535.847656 0.691406 534.992188 0.902344 534.148438 1.160156 C 533.304688 1.417969 532.472656 1.714844 531.65625 2.050781 C 530.84375 2.390625 530.046875 2.765625 529.265625 3.183594 C 528.488281 3.597656 527.734375 4.050781 527 4.542969 C 526.265625 5.03125 525.558594 5.558594 524.875 6.117188 C 524.191406 6.675781 523.539062 7.269531 522.914062 7.894531 C 522.289062 8.519531 521.699219 9.171875 521.140625 9.851562 C 520.578125 10.535156 520.054688 11.242188 519.5625 11.976562 C 519.074219 12.710938 518.621094 13.46875 518.203125 14.246094 C 517.789062 15.023438 517.410156 15.820312 517.074219 16.636719 C 516.734375 17.453125 516.4375 18.28125 516.183594 19.125 C 515.925781 19.972656 515.710938 20.828125 515.539062 21.691406 C 515.367188 22.558594 515.238281 23.429688 515.152344 24.308594 C 515.066406 25.1875 515.019531 26.066406 515.019531 26.949219 L 515.019531 44.917969 L 443.15625 44.917969 L 443.15625 26.949219 C 443.15625 26.066406 443.109375 25.1875 443.023438 24.308594 C 442.9375 23.429688 442.808594 22.558594 442.636719 21.691406 C 442.464844 20.828125 442.25 19.972656 441.992188 19.125 C 441.738281 18.28125 441.441406 17.453125 441.101562 16.636719 C 440.765625 15.820312 440.386719 15.023438 439.972656 14.246094 C 439.554688 13.46875 439.101562 12.710938 438.613281 11.976562 C 438.121094 11.242188 437.597656 10.535156 437.039062 9.851562 C 436.476562 9.171875 435.886719 8.519531 435.261719 7.894531 C 434.636719 7.269531 433.984375 6.675781 433.300781 6.117188 C 432.617188 5.558594 431.910156 5.03125 431.175781 4.542969 C 430.441406 4.050781 429.6875 3.597656 428.910156 3.183594 C 428.128906 2.765625 427.332031 2.390625 426.519531 2.050781 C 425.703125 1.714844 424.871094 1.417969 424.027344 1.160156 C 423.183594 0.902344 422.328125 0.691406 421.460938 0.519531 C 420.597656 0.34375 419.722656 0.214844 418.847656 0.128906 C 417.96875 0.0429688 417.085938 0 416.203125 0 C 415.320312 0 414.441406 0.0429688 413.5625 0.128906 C 412.683594 0.214844 411.8125 0.34375 410.945312 0.519531 C 410.082031 0.691406 409.226562 0.902344 408.382812 1.160156 C 407.535156 1.417969 406.707031 1.714844 405.890625 2.050781 C 405.074219 2.390625 404.277344 2.765625 403.5 3.183594 C 402.722656 3.597656 401.964844 4.050781 401.230469 4.542969 C 400.496094 5.03125 399.789062 5.558594 399.109375 6.117188 C 398.425781 6.675781 397.773438 7.269531 397.148438 7.894531 C 396.523438 8.519531 395.933594 9.171875 395.371094 9.851562 C 394.8125 10.535156 394.285156 11.242188 393.796875 11.976562 C 393.304688 12.710938 392.851562 13.46875 392.4375 14.246094 C 392.019531 15.023438 391.644531 15.820312 391.304688 16.636719 C 390.96875 17.453125 390.671875 18.28125 390.414062 19.125 C 390.160156 19.972656 389.945312 20.828125 389.773438 21.691406 C 389.601562 22.558594 389.46875 23.429688 389.382812 24.308594 C 389.296875 25.1875 389.253906 26.066406 389.253906 26.949219 L 389.253906 44.917969 L 317.386719 44.917969 L 317.386719 26.949219 C 317.386719 26.066406 317.34375 25.1875 317.257812 24.308594 C 317.171875 23.429688 317.042969 22.558594 316.871094 21.691406 C 316.699219 20.828125 316.484375 19.972656 316.226562 19.125 C 315.972656 18.28125 315.671875 17.453125 315.335938 16.636719 C 315 15.820312 314.621094 15.023438 314.207031 14.246094 C 313.789062 13.46875 313.335938 12.710938 312.84375 11.976562 C 312.355469 11.242188 311.828125 10.535156 311.269531 9.851562 C 310.710938 9.171875 310.117188 8.519531 309.492188 7.894531 C 308.871094 7.269531 308.214844 6.675781 307.535156 6.117188 C 306.851562 5.558594 306.144531 5.03125 305.410156 4.542969 C 304.675781 4.050781 303.921875 3.597656 303.140625 3.183594 C 302.363281 2.765625 301.566406 2.390625 300.75 2.050781 C 299.933594 1.714844 299.105469 1.417969 298.261719 1.160156 C 297.414062 0.902344 296.5625 0.691406 295.695312 0.519531 C 294.828125 0.34375 293.957031 0.214844 293.078125 0.128906 C 292.199219 0.0429688 291.320312 0 290.4375 0 C 289.554688 0 288.675781 0.0429688 287.796875 0.128906 C 286.917969 0.214844 286.046875 0.34375 285.179688 0.519531 C 284.3125 0.691406 283.457031 0.902344 282.613281 1.160156 C 281.769531 1.417969 280.9375 1.714844 280.125 2.050781 C 279.308594 2.390625 278.511719 2.765625 277.734375 3.183594 C 276.953125 3.597656 276.199219 4.050781 275.464844 4.542969 C 274.730469 5.03125 274.023438 5.558594 273.339844 6.117188 C 272.65625 6.675781 272.003906 7.269531 271.378906 7.894531 C 270.757812 8.519531 270.164062 9.171875 269.605469 9.851562 C 269.042969 10.535156 268.519531 11.242188 268.027344 11.976562 C 267.539062 12.710938 267.085938 13.46875 266.667969 14.246094 C 266.253906 15.023438 265.875 15.820312 265.539062 16.636719 C 265.199219 17.453125 264.902344 18.28125 264.648438 19.125 C 264.390625 19.972656 264.175781 20.828125 264.003906 21.691406 C 263.832031 22.558594 263.703125 23.429688 263.617188 24.308594 C 263.53125 25.1875 263.488281 26.066406 263.488281 26.949219 L 263.488281 44.917969 L 236.539062 44.917969 C 235.066406 44.917969 233.597656 44.992188 232.136719 45.136719 C 230.671875 45.285156 229.21875 45.5 227.777344 45.789062 C 226.335938 46.078125 224.910156 46.433594 223.503906 46.863281 C 222.097656 47.289062 220.714844 47.785156 219.355469 48.351562 C 218 48.914062 216.671875 49.542969 215.375 50.234375 C 214.078125 50.929688 212.816406 51.683594 211.59375 52.503906 C 210.371094 53.320312 209.191406 54.195312 208.054688 55.128906 C 206.917969 56.0625 205.832031 57.046875 204.792969 58.089844 C 203.75 59.128906 202.765625 60.214844 201.832031 61.351562 C 200.898438 62.488281 200.023438 63.667969 199.207031 64.890625 C 198.390625 66.113281 197.632812 67.375 196.941406 68.671875 C 196.246094 69.96875 195.617188 71.292969 195.054688 72.652344 C 194.488281 74.011719 193.996094 75.394531 193.566406 76.800781 C 193.136719 78.207031 192.78125 79.632812 192.492188 81.074219 C 192.203125 82.515625 191.988281 83.96875 191.839844 85.433594 C 191.695312 86.894531 191.621094 88.363281 191.621094 89.832031 L 191.621094 431.203125 C 191.621094 432.671875 191.695312 434.140625 191.839844 435.601562 C 191.988281 437.066406 192.203125 438.519531 192.492188 439.960938 C 192.78125 441.402344 193.136719 442.828125 193.566406 444.234375 C 193.996094 445.640625 194.488281 447.023438 195.054688 448.382812 C 195.617188 449.742188 196.246094 451.066406 196.941406 452.363281 C 197.632812 453.660156 198.390625 454.921875 199.207031 456.144531 C 200.023438 457.367188 200.898438 458.546875 201.832031 459.683594 C 202.765625 460.820312 203.75 461.90625 204.792969 462.945312 C 205.832031 463.988281 206.917969 464.972656 208.054688 465.90625 C 209.191406 466.839844 210.371094 467.714844 211.59375 468.53125 C 212.816406 469.351562 214.078125 470.105469 215.375 470.800781 C 216.671875 471.492188 218 472.121094 219.355469 472.683594 C 220.714844 473.25 222.097656 473.746094 223.503906 474.171875 C 224.910156 474.601562 226.335938 474.957031 227.777344 475.246094 C 229.21875 475.535156 230.671875 475.75 232.136719 475.898438 C 233.597656 476.042969 235.066406 476.117188 236.539062 476.117188 L 416.203125 476.117188 C 416.792969 476.117188 417.378906 476.0625 417.957031 475.945312 C 418.535156 475.832031 419.097656 475.660156 419.640625 475.433594 C 420.1875 475.207031 420.703125 474.933594 421.195312 474.605469 C 421.6875 474.277344 422.140625 473.902344 422.554688 473.488281 C 422.972656 473.070312 423.347656 472.617188 423.671875 472.125 C 424 471.636719 424.277344 471.117188 424.503906 470.574219 C 424.730469 470.027344 424.898438 469.464844 425.015625 468.886719 C 425.128906 468.308594 425.1875 467.726562 425.1875 467.136719 C 425.1875 466.546875 425.128906 465.960938 425.015625 465.382812 C 424.898438 464.804688 424.730469 464.242188 424.503906 463.695312 C 424.277344 463.152344 424 462.632812 423.671875 462.144531 C 423.347656 461.652344 422.972656 461.199219 422.554688 460.78125 C 422.140625 460.367188 421.6875 459.992188 421.195312 459.664062 C 420.703125 459.335938 420.1875 459.0625 419.640625 458.835938 C 419.097656 458.609375 418.535156 458.4375 417.957031 458.324219 C 417.378906 458.210938 416.792969 458.152344 416.203125 458.152344 Z M 532.988281 26.949219 C 532.988281 26.359375 533.046875 25.777344 533.160156 25.199219 C 533.277344 24.617188 533.445312 24.058594 533.671875 23.511719 C 533.898438 22.96875 534.175781 22.449219 534.503906 21.960938 C 534.828125 21.46875 535.203125 21.015625 535.621094 20.597656 C 536.035156 20.179688 536.488281 19.808594 536.980469 19.480469 C 537.472656 19.152344 537.988281 18.875 538.535156 18.652344 C 539.078125 18.425781 539.640625 18.253906 540.21875 18.140625 C 540.796875 18.023438 541.382812 17.964844 541.972656 17.964844 C 542.5625 17.964844 543.144531 18.023438 543.722656 18.140625 C 544.300781 18.253906 544.863281 18.425781 545.410156 18.652344 C 545.953125 18.875 546.472656 19.152344 546.960938 19.480469 C 547.453125 19.808594 547.90625 20.179688 548.324219 20.597656 C 548.742188 21.015625 549.113281 21.46875 549.441406 21.960938 C 549.769531 22.449219 550.046875 22.96875 550.269531 23.511719 C 550.496094 24.058594 550.667969 24.617188 550.78125 25.199219 C 550.898438 25.777344 550.953125 26.359375 550.953125 26.949219 L 550.953125 71.867188 C 550.953125 72.457031 550.898438 73.039062 550.78125 73.621094 C 550.667969 74.199219 550.496094 74.757812 550.269531 75.304688 C 550.046875 75.851562 549.769531 76.367188 549.441406 76.859375 C 549.113281 77.347656 548.742188 77.800781 548.324219 78.21875 C 547.90625 78.636719 547.453125 79.007812 546.960938 79.335938 C 546.472656 79.664062 545.953125 79.941406 545.410156 80.167969 C 544.863281 80.390625 544.300781 80.5625 543.722656 80.675781 C 543.144531 80.792969 542.5625 80.851562 541.972656 80.851562 C 541.382812 80.851562 540.796875 80.792969 540.21875 80.675781 C 539.640625 80.5625 539.078125 80.390625 538.535156 80.167969 C 537.988281 79.941406 537.472656 79.664062 536.980469 79.335938 C 536.488281 79.007812 536.035156 78.636719 535.621094 78.21875 C 535.203125 77.800781 534.828125 77.347656 534.503906 76.859375 C 534.175781 76.367188 533.898438 75.851562 533.671875 75.304688 C 533.445312 74.757812 533.277344 74.199219 533.160156 73.621094 C 533.046875 73.039062 532.988281 72.457031 532.988281 71.867188 Z M 407.222656 26.949219 C 407.222656 26.359375 407.277344 25.777344 407.394531 25.199219 C 407.507812 24.617188 407.679688 24.058594 407.90625 23.511719 C 408.128906 22.96875 408.40625 22.449219 408.734375 21.960938 C 409.0625 21.46875 409.433594 21.015625 409.851562 20.597656 C 410.269531 20.179688 410.722656 19.808594 411.214844 19.480469 C 411.703125 19.152344 412.222656 18.875 412.765625 18.652344 C 413.3125 18.425781 413.875 18.253906 414.453125 18.140625 C 415.03125 18.023438 415.613281 17.964844 416.203125 17.964844 C 416.792969 17.964844 417.378906 18.023438 417.957031 18.140625 C 418.535156 18.253906 419.097656 18.425781 419.640625 18.652344 C 420.1875 18.875 420.703125 19.152344 421.195312 19.480469 C 421.6875 19.808594 422.140625 20.179688 422.554688 20.597656 C 422.972656 21.015625 423.347656 21.46875 423.671875 21.960938 C 424 22.449219 424.277344 22.96875 424.503906 23.511719 C 424.730469 24.058594 424.898438 24.617188 425.015625 25.199219 C 425.128906 25.777344 425.1875 26.359375 425.1875 26.949219 L 425.1875 71.867188 C 425.1875 72.457031 425.128906 73.039062 425.015625 73.621094 C 424.898438 74.199219 424.730469 74.757812 424.503906 75.304688 C 424.277344 75.851562 424 76.367188 423.671875 76.859375 C 423.347656 77.347656 422.972656 77.800781 422.554688 78.21875 C 422.140625 78.636719 421.6875 79.007812 421.195312 79.335938 C 420.703125 79.664062 420.1875 79.941406 419.640625 80.167969 C 419.097656 80.390625 418.535156 80.5625 417.957031 80.675781 C 417.378906 80.792969 416.792969 80.851562 416.203125 80.851562 C 415.613281 80.851562 415.03125 80.792969 414.453125 80.675781 C 413.875 80.5625 413.3125 80.390625 412.765625 80.167969 C 412.222656 79.941406 411.703125 79.664062 411.214844 79.335938 C 410.722656 79.007812 410.269531 78.636719 409.851562 78.21875 C 409.433594 77.800781 409.0625 77.347656 408.734375 76.859375 C 408.40625 76.367188 408.128906 75.851562 407.90625 75.304688 C 407.679688 74.757812 407.507812 74.199219 407.394531 73.621094 C 407.277344 73.039062 407.222656 72.457031 407.222656 71.867188 Z M 281.453125 26.949219 C 281.453125 26.359375 281.511719 25.777344 281.625 25.199219 C 281.742188 24.617188 281.910156 24.058594 282.136719 23.511719 C 282.363281 22.96875 282.640625 22.449219 282.96875 21.960938 C 283.296875 21.46875 283.667969 21.015625 284.085938 20.597656 C 284.503906 20.179688 284.957031 19.808594 285.445312 19.480469 C 285.9375 19.152344 286.453125 18.875 287 18.652344 C 287.542969 18.425781 288.105469 18.253906 288.683594 18.140625 C 289.261719 18.023438 289.847656 17.964844 290.4375 17.964844 C 291.027344 17.964844 291.613281 18.023438 292.191406 18.140625 C 292.769531 18.253906 293.332031 18.425781 293.875 18.652344 C 294.421875 18.875 294.9375 19.152344 295.429688 19.480469 C 295.917969 19.808594 296.371094 20.179688 296.789062 20.597656 C 297.207031 21.015625 297.578125 21.46875 297.90625 21.960938 C 298.234375 22.449219 298.511719 22.96875 298.738281 23.511719 C 298.960938 24.058594 299.132812 24.617188 299.25 25.199219 C 299.363281 25.777344 299.421875 26.359375 299.421875 26.949219 L 299.421875 71.867188 C 299.421875 72.457031 299.363281 73.039062 299.25 73.621094 C 299.132812 74.199219 298.960938 74.757812 298.738281 75.304688 C 298.511719 75.851562 298.234375 76.367188 297.90625 76.859375 C 297.578125 77.347656 297.207031 77.800781 296.789062 78.21875 C 296.371094 78.636719 295.917969 79.007812 295.429688 79.335938 C 294.9375 79.664062 294.421875 79.941406 293.875 80.167969 C 293.332031 80.390625 292.769531 80.5625 292.191406 80.675781 C 291.613281 80.792969 291.027344 80.851562 290.4375 80.851562 C 289.847656 80.851562 289.261719 80.792969 288.683594 80.675781 C 288.105469 80.5625 287.542969 80.390625 287 80.167969 C 286.453125 79.941406 285.9375 79.664062 285.445312 79.335938 C 284.957031 79.007812 284.503906 78.636719 284.085938 78.21875 C 283.667969 77.800781 283.296875 77.347656 282.96875 76.859375 C 282.640625 76.367188 282.363281 75.851562 282.136719 75.304688 C 281.910156 74.757812 281.742188 74.199219 281.625 73.621094 C 281.511719 73.039062 281.453125 72.457031 281.453125 71.867188 Z M 236.539062 62.882812 L 263.488281 62.882812 L 263.488281 71.867188 C 263.488281 72.75 263.53125 73.628906 263.617188 74.507812 C 263.703125 75.386719 263.832031 76.257812 264.003906 77.125 C 264.175781 77.992188 264.390625 78.84375 264.648438 79.691406 C 264.902344 80.535156 265.199219 81.363281 265.539062 82.179688 C 265.875 82.996094 266.253906 83.792969 266.667969 84.570312 C 267.085938 85.347656 267.539062 86.105469 268.027344 86.839844 C 268.519531 87.574219 269.042969 88.28125 269.605469 88.964844 C 270.164062 89.644531 270.757812 90.300781 271.378906 90.921875 C 272.003906 91.546875 272.65625 92.140625 273.339844 92.699219 C 274.023438 93.257812 274.730469 93.785156 275.464844 94.273438 C 276.199219 94.765625 276.953125 95.21875 277.734375 95.636719 C 278.511719 96.050781 279.308594 96.429688 280.125 96.765625 C 280.9375 97.101562 281.769531 97.398438 282.613281 97.65625 C 283.457031 97.914062 284.3125 98.128906 285.179688 98.300781 C 286.046875 98.472656 286.917969 98.601562 287.796875 98.6875 C 288.675781 98.773438 289.554688 98.816406 290.4375 98.816406 C 291.320312 98.816406 292.199219 98.773438 293.078125 98.6875 C 293.957031 98.601562 294.828125 98.472656 295.695312 98.300781 C 296.5625 98.128906 297.414062 97.914062 298.261719 97.65625 C 299.105469 97.398438 299.933594 97.101562 300.75 96.765625 C 301.566406 96.429688 302.363281 96.050781 303.140625 95.636719 C 303.921875 95.21875 304.675781 94.765625 305.410156 94.273438 C 306.144531 93.785156 306.851562 93.257812 307.535156 92.699219 C 308.214844 92.140625 308.871094 91.546875 309.492188 90.921875 C 310.117188 90.300781 310.710938 89.644531 311.269531 88.964844 C 311.828125 88.28125 312.355469 87.574219 312.84375 86.839844 C 313.335938 86.105469 313.789062 85.347656 314.207031 84.570312 C 314.621094 83.792969 315 82.996094 315.335938 82.179688 C 315.671875 81.363281 315.972656 80.535156 316.226562 79.691406 C 316.484375 78.84375 316.699219 77.992188 316.871094 77.125 C 317.042969 76.257812 317.171875 75.386719 317.257812 74.507812 C 317.34375 73.628906 317.386719 72.75 317.386719 71.867188 L 317.386719 62.882812 L 389.253906 62.882812 L 389.253906 71.867188 C 389.253906 72.75 389.296875 73.628906 389.382812 74.507812 C 389.46875 75.386719 389.601562 76.257812 389.773438 77.125 C 389.945312 77.992188 390.160156 78.84375 390.414062 79.691406 C 390.671875 80.535156 390.96875 81.363281 391.304688 82.179688 C 391.644531 82.996094 392.019531 83.792969 392.4375 84.570312 C 392.851562 85.347656 393.304688 86.105469 393.796875 86.839844 C 394.285156 87.574219 394.8125 88.28125 395.371094 88.964844 C 395.933594 89.644531 396.523438 90.300781 397.148438 90.921875 C 397.773438 91.546875 398.425781 92.140625 399.109375 92.699219 C 399.789062 93.257812 400.496094 93.785156 401.230469 94.273438 C 401.964844 94.765625 402.722656 95.21875 403.5 95.636719 C 404.277344 96.050781 405.074219 96.429688 405.890625 96.765625 C 406.707031 97.101562 407.535156 97.398438 408.382812 97.65625 C 409.226562 97.914062 410.082031 98.128906 410.945312 98.300781 C 411.8125 98.472656 412.683594 98.601562 413.5625 98.6875 C 414.441406 98.773438 415.320312 98.816406 416.203125 98.816406 C 417.085938 98.816406 417.96875 98.773438 418.847656 98.6875 C 419.722656 98.601562 420.597656 98.472656 421.460938 98.300781 C 422.328125 98.128906 423.183594 97.914062 424.027344 97.65625 C 424.871094 97.398438 425.703125 97.101562 426.519531 96.765625 C 427.332031 96.429688 428.128906 96.050781 428.910156 95.636719 C 429.6875 95.21875 430.441406 94.765625 431.175781 94.273438 C 431.910156 93.785156 432.617188 93.257812 433.300781 92.699219 C 433.984375 92.140625 434.636719 91.546875 435.261719 90.921875 C 435.886719 90.300781 436.476562 89.644531 437.039062 88.964844 C 437.597656 88.28125 438.121094 87.574219 438.613281 86.839844 C 439.101562 86.105469 439.554688 85.347656 439.972656 84.570312 C 440.386719 83.792969 440.765625 82.996094 441.101562 82.179688 C 441.441406 81.363281 441.738281 80.535156 441.992188 79.691406 C 442.25 78.84375 442.464844 77.992188 442.636719 77.125 C 442.808594 76.257812 442.9375 75.386719 443.023438 74.507812 C 443.109375 73.628906 443.15625 72.75 443.15625 71.867188 L 443.15625 62.882812 L 515.019531 62.882812 L 515.019531 71.867188 C 515.019531 72.75 515.066406 73.628906 515.152344 74.507812 C 515.238281 75.386719 515.367188 76.257812 515.539062 77.125 C 515.710938 77.992188 515.925781 78.84375 516.183594 79.691406 C 516.4375 80.535156 516.734375 81.363281 517.074219 82.179688 C 517.410156 82.996094 517.789062 83.792969 518.203125 84.570312 C 518.621094 85.347656 519.074219 86.105469 519.5625 86.839844 C 520.054688 87.574219 520.578125 88.28125 521.140625 88.964844 C 521.699219 89.644531 522.289062 90.300781 522.914062 90.921875 C 523.539062 91.546875 524.191406 92.140625 524.875 92.699219 C 525.558594 93.257812 526.265625 93.785156 527 94.273438 C 527.734375 94.765625 528.488281 95.21875 529.265625 95.636719 C 530.046875 96.050781 530.84375 96.429688 531.65625 96.765625 C 532.472656 97.101562 533.304688 97.398438 534.148438 97.65625 C 534.992188 97.914062 535.847656 98.128906 536.714844 98.300781 C 537.578125 98.472656 538.453125 98.601562 539.328125 98.6875 C 540.207031 98.773438 541.089844 98.816406 541.972656 98.816406 C 542.855469 98.816406 543.734375 98.773438 544.613281 98.6875 C 545.492188 98.601562 546.363281 98.472656 547.230469 98.300781 C 548.09375 98.128906 548.949219 97.914062 549.792969 97.65625 C 550.640625 97.398438 551.46875 97.101562 552.285156 96.765625 C 553.101562 96.429688 553.898438 96.050781 554.675781 95.636719 C 555.453125 95.21875 556.210938 94.765625 556.945312 94.273438 C 557.679688 93.785156 558.386719 93.257812 559.070312 92.699219 C 559.75 92.140625 560.402344 91.546875 561.027344 90.921875 C 561.652344 90.300781 562.246094 89.644531 562.804688 88.964844 C 563.363281 88.28125 563.890625 87.574219 564.378906 86.839844 C 564.871094 86.105469 565.324219 85.347656 565.738281 84.570312 C 566.15625 83.792969 566.53125 82.996094 566.871094 82.179688 C 567.207031 81.363281 567.503906 80.535156 567.761719 79.691406 C 568.015625 78.84375 568.230469 77.992188 568.402344 77.125 C 568.574219 76.257812 568.707031 75.386719 568.792969 74.507812 C 568.878906 73.628906 568.921875 72.75 568.921875 71.867188 L 568.921875 62.882812 L 595.871094 62.882812 C 596.753906 62.882812 597.632812 62.929688 598.511719 63.015625 C 599.390625 63.101562 600.261719 63.234375 601.128906 63.40625 C 601.992188 63.578125 602.847656 63.792969 603.691406 64.050781 C 604.535156 64.308594 605.367188 64.605469 606.179688 64.941406 C 606.996094 65.28125 607.792969 65.65625 608.570312 66.074219 C 609.347656 66.492188 610.105469 66.945312 610.835938 67.433594 C 611.570312 67.925781 612.277344 68.449219 612.960938 69.011719 C 613.644531 69.570312 614.296875 70.160156 614.917969 70.785156 C 615.542969 71.410156 616.136719 72.0625 616.695312 72.746094 C 617.253906 73.425781 617.78125 74.132812 618.269531 74.867188 C 618.761719 75.601562 619.214844 76.355469 619.632812 77.136719 C 620.046875 77.914062 620.425781 78.710938 620.761719 79.523438 C 621.101562 80.339844 621.398438 81.167969 621.65625 82.015625 C 621.910156 82.859375 622.125 83.710938 622.300781 84.578125 C 622.472656 85.441406 622.601562 86.316406 622.6875 87.191406 C 622.777344 88.070312 622.820312 88.953125 622.820312 89.832031 L 622.820312 116.785156 L 209.585938 116.785156 L 209.585938 89.832031 C 209.589844 88.953125 209.632812 88.070312 209.71875 87.191406 C 209.808594 86.316406 209.9375 85.441406 210.109375 84.578125 C 210.28125 83.710938 210.496094 82.859375 210.753906 82.015625 C 211.011719 81.167969 211.308594 80.339844 211.644531 79.523438 C 211.984375 78.710938 212.363281 77.914062 212.777344 77.136719 C 213.195312 76.355469 213.648438 75.601562 214.136719 74.867188 C 214.628906 74.132812 215.152344 73.425781 215.714844 72.746094 C 216.273438 72.0625 216.863281 71.410156 217.488281 70.785156 C 218.113281 70.160156 218.765625 69.570312 219.449219 69.011719 C 220.128906 68.449219 220.835938 67.925781 221.570312 67.433594 C 222.304688 66.945312 223.0625 66.492188 223.839844 66.074219 C 224.617188 65.65625 225.414062 65.28125 226.226562 64.941406 C 227.042969 64.605469 227.871094 64.308594 228.71875 64.050781 C 229.5625 63.792969 230.417969 63.578125 231.28125 63.40625 C 232.148438 63.234375 233.019531 63.101562 233.894531 63.015625 C 234.773438 62.929688 235.65625 62.882812 236.539062 62.882812 Z M 568.921875 206.617188 L 568.921875 188.652344 L 532.988281 188.652344 L 532.988281 214.867188 C 532.988281 215.457031 532.929688 216.042969 532.816406 216.621094 C 532.699219 217.199219 532.53125 217.761719 532.304688 218.304688 C 532.078125 218.851562 531.800781 219.367188 531.472656 219.859375 C 531.144531 220.347656 530.773438 220.804688 530.355469 221.21875 C 529.941406 221.636719 529.484375 222.011719 528.996094 222.335938 C 528.503906 222.664062 527.988281 222.941406 527.441406 223.167969 C 526.898438 223.394531 526.335938 223.5625 525.757812 223.679688 C 525.179688 223.792969 524.59375 223.851562 524.003906 223.851562 C 523.414062 223.851562 522.832031 223.792969 522.253906 223.679688 C 521.671875 223.5625 521.113281 223.394531 520.566406 223.167969 C 520.023438 222.941406 519.503906 222.664062 519.015625 222.335938 C 518.523438 222.011719 518.070312 221.636719 517.652344 221.21875 C 517.234375 220.804688 516.863281 220.347656 516.535156 219.859375 C 516.207031 219.367188 515.929688 218.851562 515.707031 218.304688 C 515.480469 217.761719 515.308594 217.199219 515.195312 216.621094 C 515.078125 216.042969 515.019531 215.457031 515.019531 214.867188 L 515.019531 179.667969 C 515.019531 179.078125 515.078125 178.492188 515.195312 177.914062 C 515.308594 177.335938 515.480469 176.773438 515.703125 176.230469 C 515.929688 175.683594 516.207031 175.167969 516.535156 174.675781 C 516.863281 174.183594 517.234375 173.730469 517.652344 173.3125 C 518.070312 172.898438 518.523438 172.523438 519.011719 172.195312 C 519.503906 171.871094 520.023438 171.59375 520.566406 171.367188 C 521.113281 171.140625 521.671875 170.972656 522.253906 170.855469 C 522.832031 170.742188 523.414062 170.683594 524.003906 170.683594 L 577.90625 170.683594 C 578.496094 170.683594 579.078125 170.742188 579.65625 170.855469 C 580.234375 170.972656 580.796875 171.140625 581.34375 171.367188 C 581.886719 171.59375 582.40625 171.871094 582.894531 172.195312 C 583.386719 172.523438 583.839844 172.898438 584.257812 173.3125 C 584.675781 173.730469 585.046875 174.183594 585.375 174.675781 C 585.703125 175.167969 585.980469 175.683594 586.207031 176.230469 C 586.429688 176.773438 586.601562 177.335938 586.714844 177.914062 C 586.832031 178.492188 586.886719 179.078125 586.886719 179.667969 L 586.886719 206.617188 C 586.886719 207.207031 586.832031 207.792969 586.714844 208.371094 C 586.601562 208.949219 586.429688 209.511719 586.203125 210.054688 C 585.980469 210.601562 585.703125 211.117188 585.375 211.609375 C 585.046875 212.097656 584.675781 212.550781 584.257812 212.96875 C 583.839844 213.386719 583.386719 213.757812 582.894531 214.085938 C 582.40625 214.414062 581.886719 214.691406 581.34375 214.917969 C 580.796875 215.144531 580.234375 215.3125 579.65625 215.429688 C 579.078125 215.542969 578.496094 215.601562 577.90625 215.601562 C 577.316406 215.601562 576.730469 215.542969 576.152344 215.429688 C 575.574219 215.3125 575.011719 215.144531 574.46875 214.917969 C 573.921875 214.691406 573.40625 214.414062 572.914062 214.085938 C 572.421875 213.757812 571.96875 213.386719 571.554688 212.96875 C 571.136719 212.550781 570.761719 212.097656 570.4375 211.609375 C 570.109375 211.117188 569.832031 210.601562 569.605469 210.054688 C 569.378906 209.511719 569.210938 208.949219 569.09375 208.371094 C 568.980469 207.792969 568.921875 207.207031 568.921875 206.617188 Z M 577.90625 269.5 C 575.992188 269.5 574.082031 269.546875 572.175781 269.640625 C 570.265625 269.734375 568.359375 269.875 566.457031 270.0625 C 564.554688 270.25 562.660156 270.484375 560.769531 270.765625 C 558.878906 271.046875 556.996094 271.371094 555.121094 271.746094 C 553.246094 272.117188 551.382812 272.535156 549.527344 273 C 547.675781 273.464844 545.832031 273.976562 544.003906 274.53125 C 542.175781 275.085938 540.359375 275.683594 538.5625 276.328125 C 536.761719 276.972656 534.980469 277.660156 533.214844 278.390625 C 531.449219 279.121094 529.699219 279.894531 527.972656 280.714844 C 526.246094 281.53125 524.539062 282.390625 522.851562 283.289062 C 521.167969 284.191406 519.503906 285.132812 517.867188 286.117188 C 516.226562 287.097656 514.613281 288.121094 513.023438 289.183594 C 511.433594 290.246094 509.871094 291.34375 508.335938 292.484375 C 506.800781 293.621094 505.296875 294.796875 503.816406 296.007812 C 502.339844 297.222656 500.894531 298.46875 499.476562 299.753906 C 498.0625 301.039062 496.679688 302.355469 495.328125 303.707031 C 493.976562 305.058594 492.65625 306.441406 491.375 307.859375 C 490.089844 309.273438 488.84375 310.71875 487.628906 312.199219 C 486.417969 313.675781 485.242188 315.179688 484.101562 316.714844 C 482.964844 318.25 481.863281 319.8125 480.804688 321.402344 C 479.742188 322.992188 478.71875 324.605469 477.734375 326.246094 C 476.753906 327.886719 475.8125 329.546875 474.910156 331.234375 C 474.011719 332.917969 473.152344 334.625 472.332031 336.351562 C 471.515625 338.082031 470.742188 339.828125 470.011719 341.59375 C 469.28125 343.359375 468.589844 345.140625 467.949219 346.941406 C 467.304688 348.742188 466.703125 350.554688 466.148438 352.382812 C 465.59375 354.214844 465.085938 356.054688 464.621094 357.910156 C 464.15625 359.761719 463.738281 361.625 463.363281 363.5 C 462.992188 365.375 462.664062 367.257812 462.386719 369.148438 C 462.105469 371.039062 461.871094 372.9375 461.683594 374.835938 C 461.496094 376.738281 461.355469 378.644531 461.261719 380.554688 C 461.167969 382.464844 461.121094 384.375 461.121094 386.285156 C 461.121094 388.195312 461.167969 390.105469 461.261719 392.015625 C 461.355469 393.925781 461.496094 395.828125 461.683594 397.730469 C 461.871094 399.632812 462.105469 401.53125 462.386719 403.421875 C 462.664062 405.3125 462.992188 407.195312 463.363281 409.066406 C 463.738281 410.941406 464.15625 412.808594 464.621094 414.660156 C 465.085938 416.515625 465.59375 418.355469 466.148438 420.183594 C 466.703125 422.015625 467.304688 423.828125 467.949219 425.628906 C 468.589844 427.425781 469.28125 429.210938 470.011719 430.976562 C 470.742188 432.742188 471.515625 434.488281 472.332031 436.214844 C 473.152344 437.945312 474.011719 439.652344 474.910156 441.335938 C 475.8125 443.023438 476.753906 444.683594 477.734375 446.324219 C 478.71875 447.960938 479.742188 449.578125 480.804688 451.167969 C 481.863281 452.753906 482.964844 454.316406 484.101562 455.851562 C 485.242188 457.386719 486.417969 458.894531 487.628906 460.371094 C 488.84375 461.847656 490.089844 463.296875 491.375 464.710938 C 492.65625 466.128906 493.976562 467.511719 495.328125 468.863281 C 496.679688 470.214844 498.0625 471.53125 499.476562 472.816406 C 500.894531 474.097656 502.339844 475.347656 503.816406 476.558594 C 505.296875 477.773438 506.800781 478.949219 508.335938 480.085938 C 509.871094 481.226562 511.433594 482.324219 513.023438 483.386719 C 514.613281 484.449219 516.226562 485.472656 517.867188 486.453125 C 519.503906 487.4375 521.167969 488.378906 522.851562 489.277344 C 524.539062 490.179688 526.246094 491.039062 527.972656 491.855469 C 529.699219 492.671875 531.449219 493.449219 533.214844 494.179688 C 534.980469 494.910156 536.761719 495.597656 538.5625 496.242188 C 540.359375 496.886719 542.175781 497.484375 544.003906 498.039062 C 545.832031 498.59375 547.675781 499.105469 549.527344 499.570312 C 551.382812 500.03125 553.246094 500.453125 555.121094 500.824219 C 556.996094 501.195312 558.878906 501.523438 560.769531 501.804688 C 562.660156 502.085938 564.554688 502.320312 566.457031 502.507812 C 568.359375 502.695312 570.265625 502.832031 572.175781 502.925781 C 574.082031 503.019531 575.992188 503.070312 577.90625 503.070312 C 579.816406 503.070312 581.726562 503.019531 583.636719 502.925781 C 585.542969 502.832031 587.449219 502.695312 589.351562 502.507812 C 591.253906 502.320312 593.148438 502.085938 595.039062 501.804688 C 596.929688 501.523438 598.8125 501.195312 600.6875 500.824219 C 602.5625 500.453125 604.425781 500.03125 606.28125 499.570312 C 608.136719 499.105469 609.976562 498.59375 611.804688 498.039062 C 613.632812 497.484375 615.449219 496.886719 617.25 496.242188 C 619.046875 495.597656 620.832031 494.910156 622.597656 494.179688 C 624.363281 493.449219 626.109375 492.671875 627.835938 491.855469 C 629.5625 491.039062 631.269531 490.179688 632.957031 489.277344 C 634.640625 488.378906 636.304688 487.4375 637.945312 486.453125 C 639.582031 485.472656 641.199219 484.449219 642.785156 483.386719 C 644.375 482.324219 645.9375 481.226562 647.472656 480.085938 C 649.007812 478.949219 650.515625 477.773438 651.992188 476.558594 C 653.46875 475.347656 654.914062 474.097656 656.332031 472.816406 C 657.75 471.53125 659.132812 470.214844 660.484375 468.863281 C 661.835938 467.511719 663.152344 466.128906 664.4375 464.710938 C 665.71875 463.296875 666.96875 461.847656 668.179688 460.371094 C 669.390625 458.894531 670.566406 457.386719 671.707031 455.851562 C 672.84375 454.316406 673.945312 452.753906 675.007812 451.167969 C 676.070312 449.578125 677.089844 447.960938 678.074219 446.324219 C 679.054688 444.683594 679.996094 443.023438 680.898438 441.335938 C 681.800781 439.652344 682.660156 437.945312 683.476562 436.214844 C 684.292969 434.488281 685.066406 432.742188 685.800781 430.976562 C 686.53125 429.210938 687.21875 427.425781 687.863281 425.628906 C 688.503906 423.828125 689.105469 422.015625 689.660156 420.183594 C 690.214844 418.355469 690.722656 416.515625 691.1875 414.660156 C 691.652344 412.808594 692.070312 410.941406 692.445312 409.066406 C 692.816406 407.195312 693.144531 405.3125 693.425781 403.421875 C 693.707031 401.53125 693.9375 399.632812 694.125 397.730469 C 694.3125 395.828125 694.453125 393.925781 694.546875 392.015625 C 694.640625 390.105469 694.6875 388.195312 694.6875 386.285156 C 694.6875 384.375 694.636719 382.464844 694.542969 380.554688 C 694.445312 378.648438 694.304688 376.742188 694.113281 374.84375 C 693.925781 372.941406 693.691406 371.046875 693.40625 369.15625 C 693.125 367.265625 692.796875 365.382812 692.421875 363.511719 C 692.046875 361.636719 691.628906 359.773438 691.164062 357.921875 C 690.695312 356.066406 690.1875 354.226562 689.628906 352.398438 C 689.074219 350.570312 688.472656 348.757812 687.828125 346.960938 C 687.183594 345.160156 686.496094 343.378906 685.765625 341.613281 C 685.03125 339.847656 684.257812 338.101562 683.4375 336.375 C 682.621094 334.648438 681.761719 332.945312 680.859375 331.257812 C 679.957031 329.574219 679.015625 327.914062 678.035156 326.273438 C 677.050781 324.636719 676.027344 323.023438 674.964844 321.433594 C 673.90625 319.847656 672.804688 318.285156 671.664062 316.75 C 670.527344 315.214844 669.351562 313.710938 668.140625 312.234375 C 666.925781 310.757812 665.679688 309.308594 664.394531 307.894531 C 663.113281 306.480469 661.796875 305.097656 660.445312 303.746094 C 659.09375 302.394531 657.710938 301.078125 656.292969 299.792969 C 654.878906 298.511719 653.433594 297.261719 651.957031 296.050781 C 650.480469 294.835938 648.972656 293.664062 647.4375 292.523438 C 645.90625 291.386719 644.34375 290.285156 642.753906 289.222656 C 641.167969 288.160156 639.554688 287.140625 637.914062 286.15625 C 636.277344 285.171875 634.613281 284.230469 632.929688 283.328125 C 631.246094 282.429688 629.539062 281.570312 627.8125 280.75 C 626.085938 279.933594 624.339844 279.15625 622.574219 278.425781 C 620.8125 277.695312 619.027344 277.003906 617.230469 276.359375 C 615.433594 275.714844 613.617188 275.113281 611.789062 274.558594 C 609.960938 274.003906 608.121094 273.492188 606.269531 273.027344 C 604.417969 272.5625 602.554688 272.140625 600.679688 271.765625 C 598.804688 271.390625 596.925781 271.0625 595.035156 270.78125 C 593.144531 270.5 591.25 270.265625 589.347656 270.074219 C 587.445312 269.886719 585.542969 269.742188 583.632812 269.648438 C 581.726562 269.550781 579.816406 269.503906 577.90625 269.5 Z M 586.886719 484.648438 L 586.886719 467.136719 C 586.886719 466.546875 586.832031 465.960938 586.714844 465.382812 C 586.601562 464.804688 586.429688 464.242188 586.203125 463.695312 C 585.980469 463.152344 585.703125 462.632812 585.375 462.144531 C 585.046875 461.652344 584.675781 461.199219 584.257812 460.78125 C 583.839844 460.367188 583.386719 459.992188 582.894531 459.664062 C 582.40625 459.335938 581.886719 459.0625 581.34375 458.835938 C 580.796875 458.609375 580.234375 458.4375 579.65625 458.324219 C 579.078125 458.210938 578.496094 458.152344 577.90625 458.152344 C 577.316406 458.152344 576.730469 458.210938 576.152344 458.324219 C 575.574219 458.4375 575.011719 458.609375 574.46875 458.835938 C 573.921875 459.0625 573.40625 459.335938 572.914062 459.664062 C 572.421875 459.992188 571.96875 460.367188 571.554688 460.78125 C 571.136719 461.199219 570.761719 461.652344 570.4375 462.144531 C 570.109375 462.632812 569.832031 463.152344 569.605469 463.695312 C 569.378906 464.242188 569.210938 464.804688 569.09375 465.382812 C 568.980469 465.960938 568.921875 466.546875 568.921875 467.136719 L 568.921875 484.648438 C 566.074219 484.382812 563.246094 483.996094 560.433594 483.488281 C 557.621094 482.980469 554.835938 482.351562 552.078125 481.597656 C 549.320312 480.847656 546.597656 479.980469 543.914062 478.996094 C 541.230469 478.007812 538.597656 476.910156 536.007812 475.695312 C 533.421875 474.480469 530.890625 473.15625 528.417969 471.722656 C 525.945312 470.289062 523.539062 468.75 521.199219 467.105469 C 518.863281 465.464844 516.597656 463.722656 514.410156 461.886719 C 512.21875 460.046875 510.117188 458.117188 508.09375 456.09375 C 506.074219 454.074219 504.144531 451.96875 502.304688 449.78125 C 500.464844 447.59375 498.726562 445.328125 497.082031 442.988281 C 495.441406 440.648438 493.902344 438.242188 492.46875 435.769531 C 491.035156 433.296875 489.710938 430.769531 488.496094 428.179688 C 487.28125 425.59375 486.179688 422.957031 485.195312 420.273438 C 484.207031 417.589844 483.339844 414.871094 482.589844 412.113281 C 481.839844 409.355469 481.210938 406.570312 480.703125 403.757812 C 480.191406 400.945312 479.804688 398.113281 479.542969 395.269531 L 497.054688 395.269531 C 497.644531 395.269531 498.230469 395.210938 498.808594 395.09375 C 499.386719 394.980469 499.949219 394.808594 500.492188 394.585938 C 501.039062 394.359375 501.554688 394.082031 502.046875 393.753906 C 502.535156 393.425781 502.988281 393.054688 503.40625 392.636719 C 503.824219 392.21875 504.195312 391.765625 504.523438 391.277344 C 504.851562 390.785156 505.128906 390.265625 505.355469 389.722656 C 505.578125 389.175781 505.75 388.617188 505.867188 388.039062 C 505.980469 387.457031 506.039062 386.875 506.039062 386.285156 C 506.039062 385.695312 505.980469 385.109375 505.867188 384.53125 C 505.75 383.953125 505.578125 383.390625 505.355469 382.847656 C 505.128906 382.300781 504.851562 381.785156 504.523438 381.292969 C 504.195312 380.804688 503.824219 380.347656 503.40625 379.933594 C 502.988281 379.515625 502.535156 379.144531 502.046875 378.816406 C 501.554688 378.488281 501.039062 378.210938 500.492188 377.984375 C 499.949219 377.757812 499.386719 377.589844 498.808594 377.472656 C 498.230469 377.359375 497.644531 377.300781 497.054688 377.300781 L 479.542969 377.300781 C 479.804688 374.457031 480.191406 371.625 480.703125 368.8125 C 481.210938 366 481.839844 363.214844 482.589844 360.457031 C 483.339844 357.699219 484.207031 354.976562 485.195312 352.292969 C 486.179688 349.613281 487.28125 346.976562 488.496094 344.390625 C 489.710938 341.800781 491.035156 339.273438 492.46875 336.796875 C 493.902344 334.324219 495.441406 331.921875 497.082031 329.582031 C 498.726562 327.242188 500.464844 324.976562 502.304688 322.789062 C 504.144531 320.601562 506.074219 318.496094 508.09375 316.472656 C 510.117188 314.453125 512.21875 312.523438 514.410156 310.683594 C 516.597656 308.84375 518.863281 307.105469 521.199219 305.460938 C 523.539062 303.820312 525.945312 302.28125 528.417969 300.847656 C 530.890625 299.414062 533.421875 298.089844 536.007812 296.875 C 538.597656 295.660156 541.230469 294.5625 543.914062 293.574219 C 546.597656 292.589844 549.320312 291.71875 552.078125 290.96875 C 554.835938 290.21875 557.621094 289.589844 560.433594 289.082031 C 563.246094 288.574219 566.074219 288.1875 568.921875 287.921875 L 568.921875 305.433594 C 568.921875 306.023438 568.980469 306.609375 569.09375 307.1875 C 569.210938 307.765625 569.378906 308.328125 569.605469 308.871094 C 569.832031 309.417969 570.109375 309.933594 570.433594 310.425781 C 570.761719 310.914062 571.136719 311.371094 571.554688 311.785156 C 571.96875 312.203125 572.421875 312.574219 572.914062 312.902344 C 573.40625 313.230469 573.921875 313.507812 574.46875 313.734375 C 575.011719 313.960938 575.574219 314.128906 576.152344 314.246094 C 576.730469 314.359375 577.316406 314.417969 577.90625 314.417969 C 578.496094 314.417969 579.078125 314.359375 579.65625 314.246094 C 580.234375 314.128906 580.796875 313.960938 581.34375 313.734375 C 581.886719 313.507812 582.40625 313.230469 582.894531 312.902344 C 583.386719 312.574219 583.839844 312.203125 584.257812 311.785156 C 584.675781 311.371094 585.046875 310.914062 585.375 310.425781 C 585.703125 309.933594 585.980469 309.417969 586.203125 308.871094 C 586.429688 308.328125 586.601562 307.765625 586.714844 307.1875 C 586.832031 306.609375 586.886719 306.023438 586.886719 305.433594 L 586.886719 287.921875 C 589.734375 288.1875 592.5625 288.574219 595.375 289.082031 C 598.191406 289.589844 600.976562 290.21875 603.734375 290.96875 C 606.492188 291.71875 609.210938 292.589844 611.894531 293.574219 C 614.578125 294.5625 617.210938 295.660156 619.800781 296.875 C 622.386719 298.089844 624.917969 299.414062 627.390625 300.847656 C 629.863281 302.28125 632.269531 303.820312 634.609375 305.460938 C 636.949219 307.105469 639.210938 308.84375 641.402344 310.683594 C 643.589844 312.523438 645.695312 314.453125 647.714844 316.472656 C 649.738281 318.496094 651.667969 320.601562 653.503906 322.789062 C 655.34375 324.976562 657.085938 327.242188 658.726562 329.582031 C 660.371094 331.921875 661.90625 334.324219 663.339844 336.796875 C 664.777344 339.273438 666.101562 341.800781 667.3125 344.390625 C 668.527344 346.976562 669.628906 349.613281 670.613281 352.292969 C 671.601562 354.976562 672.46875 357.699219 673.21875 360.457031 C 673.96875 363.214844 674.601562 366 675.109375 368.8125 C 675.617188 371.625 676.003906 374.457031 676.265625 377.300781 L 658.753906 377.300781 C 658.164062 377.300781 657.582031 377.359375 657.003906 377.472656 C 656.425781 377.589844 655.863281 377.757812 655.316406 377.984375 C 654.773438 378.210938 654.253906 378.488281 653.765625 378.816406 C 653.273438 379.144531 652.820312 379.515625 652.402344 379.933594 C 651.984375 380.347656 651.613281 380.804688 651.285156 381.292969 C 650.957031 381.785156 650.679688 382.300781 650.457031 382.847656 C 650.230469 383.390625 650.058594 383.953125 649.945312 384.53125 C 649.828125 385.109375 649.773438 385.695312 649.773438 386.285156 C 649.773438 386.875 649.828125 387.457031 649.945312 388.039062 C 650.058594 388.617188 650.230469 389.175781 650.457031 389.722656 C 650.679688 390.265625 650.957031 390.785156 651.285156 391.277344 C 651.613281 391.765625 651.984375 392.21875 652.402344 392.636719 C 652.820312 393.054688 653.273438 393.425781 653.765625 393.753906 C 654.253906 394.082031 654.773438 394.359375 655.316406 394.585938 C 655.863281 394.808594 656.425781 394.980469 657.003906 395.09375 C 657.582031 395.210938 658.164062 395.269531 658.753906 395.269531 L 676.265625 395.269531 C 676.003906 398.113281 675.617188 400.945312 675.109375 403.757812 C 674.601562 406.570312 673.96875 409.355469 673.21875 412.113281 C 672.46875 414.871094 671.601562 417.589844 670.613281 420.273438 C 669.628906 422.957031 668.527344 425.59375 667.3125 428.179688 C 666.101562 430.769531 664.777344 433.296875 663.339844 435.769531 C 661.90625 438.242188 660.371094 440.648438 658.726562 442.988281 C 657.085938 445.328125 655.34375 447.59375 653.503906 449.78125 C 651.667969 451.96875 649.738281 454.074219 647.714844 456.09375 C 645.695312 458.117188 643.589844 460.046875 641.402344 461.886719 C 639.210938 463.722656 636.949219 465.464844 634.609375 467.105469 C 632.269531 468.75 629.863281 470.289062 627.390625 471.722656 C 624.917969 473.15625 622.386719 474.480469 619.800781 475.695312 C 617.214844 476.910156 614.578125 478.007812 611.894531 478.996094 C 609.210938 479.980469 606.492188 480.847656 603.734375 481.597656 C 600.976562 482.351562 598.191406 482.980469 595.375 483.488281 C 592.5625 483.996094 589.734375 484.382812 586.886719 484.648438 Z M 611.207031 406.882812 C 611.628906 407.300781 612.007812 407.753906 612.339844 408.242188 C 612.675781 408.734375 612.957031 409.253906 613.1875 409.796875 C 613.417969 410.34375 613.59375 410.910156 613.710938 411.488281 C 613.832031 412.070312 613.890625 412.65625 613.894531 413.25 C 613.894531 413.84375 613.839844 414.433594 613.726562 415.015625 C 613.613281 415.597656 613.445312 416.160156 613.21875 416.710938 C 612.992188 417.257812 612.714844 417.78125 612.386719 418.273438 C 612.054688 418.765625 611.683594 419.222656 611.261719 419.644531 C 610.84375 420.0625 610.386719 420.4375 609.894531 420.765625 C 609.398438 421.09375 608.878906 421.371094 608.332031 421.597656 C 607.78125 421.824219 607.214844 421.992188 606.632812 422.105469 C 606.050781 422.21875 605.464844 422.277344 604.871094 422.273438 C 604.277344 422.269531 603.691406 422.210938 603.109375 422.089844 C 602.527344 421.972656 601.964844 421.796875 601.417969 421.566406 C 600.871094 421.335938 600.355469 421.054688 599.863281 420.722656 C 599.371094 420.386719 598.917969 420.007812 598.503906 419.585938 L 571.554688 392.636719 C 570.710938 391.792969 570.0625 390.824219 569.605469 389.722656 C 569.148438 388.621094 568.921875 387.476562 568.921875 386.285156 L 568.921875 341.367188 C 568.921875 340.777344 568.980469 340.195312 569.09375 339.613281 C 569.210938 339.035156 569.378906 338.476562 569.605469 337.929688 C 569.832031 337.386719 570.109375 336.867188 570.433594 336.375 C 570.761719 335.886719 571.136719 335.433594 571.554688 335.015625 C 571.96875 334.597656 572.421875 334.226562 572.914062 333.898438 C 573.40625 333.570312 573.921875 333.292969 574.46875 333.066406 C 575.011719 332.84375 575.574219 332.671875 576.152344 332.558594 C 576.730469 332.441406 577.316406 332.382812 577.90625 332.382812 C 578.496094 332.382812 579.078125 332.441406 579.65625 332.558594 C 580.234375 332.671875 580.796875 332.84375 581.34375 333.066406 C 581.886719 333.292969 582.40625 333.570312 582.894531 333.898438 C 583.386719 334.226562 583.839844 334.597656 584.257812 335.015625 C 584.675781 335.433594 585.046875 335.886719 585.375 336.375 C 585.703125 336.867188 585.980469 337.386719 586.203125 337.929688 C 586.429688 338.476562 586.601562 339.035156 586.714844 339.613281 C 586.832031 340.195312 586.886719 340.777344 586.886719 341.367188 L 586.886719 382.566406 Z M 611.207031 406.882812 " fill-opacity="1" fill-rule="nonzero"/></g><g fill="#000000" fill-opacity="1"><g transform="translate(377.651393, 357.565095)"><g><path d="M 4.125 0.125 C 3.601562 0.125 3.144531 0.0195312 2.75 -0.1875 C 2.351562 -0.394531 2.050781 -0.679688 1.84375 -1.046875 C 1.632812 -1.421875 1.53125 -1.84375 1.53125 -2.3125 C 1.53125 -2.78125 1.632812 -3.195312 1.84375 -3.5625 C 2.050781 -3.9375 2.351562 -4.226562 2.75 -4.4375 C 3.144531 -4.65625 3.601562 -4.765625 4.125 -4.765625 C 4.644531 -4.765625 5.101562 -4.660156 5.5 -4.453125 C 5.894531 -4.242188 6.195312 -3.953125 6.40625 -3.578125 C 6.613281 -3.210938 6.71875 -2.796875 6.71875 -2.328125 C 6.71875 -1.609375 6.484375 -1.019531 6.015625 -0.5625 C 5.546875 -0.101562 4.914062 0.125 4.125 0.125 Z M 4.125 0.125 "/></g></g></g></svg>