<svg xmlns="http://www.w3.org/2000/svg" xmlns:xlink="http://www.w3.org/1999/xlink" width="1280" zoomAndPan="magnify" viewBox="0 0 960 540.000001" height="720" preserveAspectRatio="xMidYMid meet" version="1.0"><defs><g/><clipPath id="0c115b80bd"><path d="M 214.273438 466 L 237 466 L 237 490 L 214.273438 490 Z M 214.273438 466 " clip-rule="nonzero"/></clipPath></defs><path fill="#0cc0df" d="M 651.730469 129.097656 C 651.730469 130.140625 651.679688 131.183594 651.574219 132.222656 C 651.472656 133.265625 651.320312 134.296875 651.117188 135.320312 C 650.914062 136.347656 650.660156 137.359375 650.355469 138.359375 C 650.050781 139.359375 649.699219 140.339844 649.300781 141.304688 C 648.902344 142.269531 648.453125 143.214844 647.960938 144.136719 C 647.46875 145.058594 646.933594 145.953125 646.351562 146.820312 C 645.773438 147.691406 645.152344 148.527344 644.488281 149.335938 C 643.824219 150.144531 643.125 150.917969 642.386719 151.65625 C 641.644531 152.394531 640.871094 153.097656 640.066406 153.757812 C 639.257812 154.421875 638.417969 155.042969 637.550781 155.625 C 636.679688 156.203125 635.785156 156.742188 634.863281 157.234375 C 633.945312 157.726562 633 158.171875 632.035156 158.574219 C 631.070312 158.972656 630.085938 159.324219 629.085938 159.628906 C 628.085938 159.929688 627.074219 160.183594 626.050781 160.386719 C 625.023438 160.59375 623.992188 160.746094 622.953125 160.847656 C 621.914062 160.949219 620.871094 161 619.824219 161 C 618.78125 161 617.738281 160.949219 616.699219 160.847656 C 615.660156 160.746094 614.625 160.59375 613.601562 160.386719 C 612.578125 160.183594 611.5625 159.929688 610.5625 159.628906 C 609.5625 159.324219 608.582031 158.972656 607.617188 158.574219 C 606.652344 158.171875 605.707031 157.726562 604.785156 157.234375 C 603.863281 156.742188 602.96875 156.203125 602.101562 155.625 C 601.230469 155.042969 600.394531 154.421875 599.585938 153.757812 C 598.777344 153.097656 598.003906 152.394531 597.265625 151.65625 C 596.527344 150.917969 595.824219 150.144531 595.164062 149.335938 C 594.5 148.527344 593.878906 147.691406 593.296875 146.820312 C 592.71875 145.953125 592.179688 145.058594 591.6875 144.136719 C 591.195312 143.214844 590.75 142.269531 590.351562 141.304688 C 589.949219 140.339844 589.597656 139.359375 589.296875 138.359375 C 588.992188 137.359375 588.738281 136.347656 588.535156 135.320312 C 588.332031 134.296875 588.175781 133.265625 588.074219 132.222656 C 587.972656 131.183594 587.921875 130.140625 587.921875 129.097656 C 587.921875 128.050781 587.972656 127.007812 588.074219 125.96875 C 588.175781 124.929688 588.332031 123.898438 588.535156 122.871094 C 588.738281 121.847656 588.992188 120.835938 589.296875 119.835938 C 589.597656 118.835938 589.949219 117.851562 590.351562 116.886719 C 590.75 115.921875 591.195312 114.980469 591.6875 114.058594 C 592.179688 113.136719 592.71875 112.242188 593.296875 111.371094 C 593.878906 110.503906 594.5 109.664062 595.164062 108.855469 C 595.824219 108.050781 596.527344 107.277344 597.265625 106.539062 C 598.003906 105.796875 598.777344 105.097656 599.585938 104.433594 C 600.394531 103.773438 601.230469 103.148438 602.101562 102.570312 C 602.96875 101.988281 603.863281 101.453125 604.785156 100.960938 C 605.707031 100.46875 606.652344 100.019531 607.617188 99.621094 C 608.582031 99.222656 609.5625 98.871094 610.5625 98.566406 C 611.5625 98.261719 612.578125 98.007812 613.601562 97.804688 C 614.625 97.601562 615.660156 97.449219 616.699219 97.347656 C 617.738281 97.242188 618.78125 97.191406 619.824219 97.191406 C 620.871094 97.191406 621.914062 97.242188 622.953125 97.347656 C 623.992188 97.449219 625.023438 97.601562 626.050781 97.804688 C 627.074219 98.007812 628.085938 98.261719 629.085938 98.566406 C 630.085938 98.871094 631.070312 99.222656 632.035156 99.621094 C 633 100.019531 633.945312 100.46875 634.863281 100.960938 C 635.785156 101.453125 636.679688 101.988281 637.550781 102.570312 C 638.417969 103.148438 639.257812 103.773438 640.066406 104.433594 C 640.871094 105.097656 641.644531 105.796875 642.386719 106.539062 C 643.125 107.277344 643.824219 108.050781 644.488281 108.855469 C 645.152344 109.664062 645.773438 110.503906 646.351562 111.371094 C 646.933594 112.242188 647.46875 113.136719 647.960938 114.058594 C 648.453125 114.980469 648.902344 115.921875 649.300781 116.886719 C 649.699219 117.851562 650.050781 118.835938 650.355469 119.835938 C 650.660156 120.835938 650.914062 121.847656 651.117188 122.871094 C 651.320312 123.898438 651.472656 124.929688 651.574219 125.96875 C 651.679688 127.007812 651.730469 128.050781 651.730469 129.097656 Z M 651.730469 129.097656 " fill-opacity="1" fill-rule="nonzero"/><path fill="#0cc0df" d="M 513.273438 312.75 C 476.050781 334.429688 437.808594 349.5625 400.585938 357.742188 C 395.0625 358.972656 389.953125 353.859375 391.179688 348.335938 C 399.5625 311.113281 414.492188 272.871094 436.171875 235.648438 C 455.601562 236.261719 475.03125 244.035156 489.957031 258.964844 C 504.886719 273.894531 512.660156 293.320312 513.273438 312.75 Z M 513.273438 312.75 " fill-opacity="1" fill-rule="nonzero"/><path fill="#0cc0df" d="M 568.695312 276.347656 L 580.355469 371.855469 L 491.390625 425.234375 L 473.800781 331.566406 " fill-opacity="1" fill-rule="nonzero"/><path fill="#0cc0df" d="M 470.9375 181.863281 L 375.429688 170.410156 L 322.054688 259.167969 L 415.71875 276.757812 " fill-opacity="1" fill-rule="nonzero"/><path fill="#474056" d="M 505.707031 326.453125 L 505.296875 313.160156 C 504.683594 294.957031 497.320312 277.777344 484.4375 264.691406 C 471.550781 251.804688 454.375 244.238281 435.96875 243.828125 L 422.671875 243.421875 L 429.421875 231.761719 C 450.285156 195.5625 476.664062 161.410156 507.957031 130.121094 C 571.355469 66.71875 648.253906 22.546875 724.535156 5.570312 C 729.855469 4.34375 735.375 5.980469 739.261719 9.863281 C 743.148438 13.75 744.785156 19.273438 743.554688 24.386719 C 726.582031 100.875 682.203125 177.769531 619.007812 241.171875 C 587.714844 272.460938 553.359375 299.046875 517.363281 319.703125 Z M 449.464844 229.105469 C 466.847656 232.171875 483.003906 240.558594 495.683594 253.441406 C 508.367188 266.121094 516.75 282.277344 520.023438 299.660156 C 551.109375 280.640625 580.558594 257.121094 607.757812 229.921875 C 668.910156 168.773438 711.652344 94.535156 728.011719 21.113281 C 654.59375 37.472656 580.558594 80.21875 519.203125 141.367188 C 491.800781 168.566406 468.484375 198.019531 449.464844 229.105469 Z M 449.464844 229.105469 " fill-opacity="1" fill-rule="nonzero"/><path fill="#474056" d="M 386.882812 278.1875 L 311.007812 263.257812 L 372.976562 160.183594 L 473.597656 172.25 L 471.550781 188.203125 L 381.363281 177.15625 L 336.367188 252.011719 L 389.953125 262.441406 Z M 386.882812 278.1875 " fill-opacity="1" fill-rule="nonzero"/><path fill="#474056" d="M 485.664062 437.914062 L 470.9375 362.039062 L 486.480469 358.972656 L 497.117188 412.554688 L 571.765625 367.765625 L 560.925781 277.371094 L 576.671875 275.527344 L 588.945312 375.945312 Z M 485.664062 437.914062 " fill-opacity="1" fill-rule="nonzero"/><path fill="#474056" d="M 398.949219 366.128906 C 394.859375 366.128906 390.769531 364.492188 387.703125 361.425781 C 383.816406 357.539062 382.179688 352.015625 383.40625 346.699219 C 391.996094 307.84375 407.539062 269.1875 429.421875 231.761719 L 431.875 227.671875 L 436.582031 227.878906 C 458.871094 228.492188 479.9375 237.695312 495.890625 253.441406 C 511.636719 269.1875 520.839844 290.253906 521.453125 312.75 L 521.660156 317.453125 L 517.570312 319.910156 C 480.140625 341.792969 441.285156 357.335938 402.632812 365.925781 C 401.199219 365.925781 399.972656 366.128906 398.949219 366.128906 Z M 440.671875 244.035156 C 420.832031 278.800781 406.925781 314.386719 398.949219 350.175781 C 434.535156 342.199219 470.324219 328.089844 505.09375 308.457031 C 503.457031 291.890625 496.300781 276.550781 484.4375 264.691406 C 472.574219 252.828125 457.238281 245.464844 440.671875 244.035156 Z M 440.671875 244.035156 " fill-opacity="1" fill-rule="nonzero"/><path fill="#474056" d="M 619.824219 168.976562 C 609.601562 168.976562 599.375 165.089844 591.601562 157.320312 C 576.058594 141.777344 576.058594 116.417969 591.601562 100.875 C 607.144531 85.332031 632.503906 85.332031 648.046875 100.875 C 663.589844 116.417969 663.589844 141.777344 648.046875 157.320312 C 640.277344 165.089844 630.050781 168.976562 619.824219 168.976562 Z M 619.824219 105.167969 C 613.691406 105.167969 607.554688 107.417969 602.851562 112.121094 C 593.441406 121.53125 593.441406 136.664062 602.851562 146.070312 C 612.257812 155.480469 627.390625 155.480469 636.800781 146.070312 C 646.207031 136.664062 646.207031 121.53125 636.800781 112.121094 C 632.097656 107.621094 625.960938 105.167969 619.824219 105.167969 Z M 619.824219 105.167969 " fill-opacity="1" fill-rule="nonzero"/><path fill="#474056" d="M 529.5625 208.242188 L 569.042969 168.761719 L 580.320312 180.042969 L 540.84375 219.523438 Z M 529.5625 208.242188 " fill-opacity="1" fill-rule="nonzero"/><path fill="#474056" d="M 506.90625 230.789062 L 518.183594 219.511719 L 529.464844 230.789062 L 518.1875 242.070312 Z M 506.90625 230.789062 " fill-opacity="1" fill-rule="nonzero"/><path fill="#474056" d="M 248.265625 365.429688 L 315.945312 297.75 L 327.226562 309.027344 L 259.546875 376.707031 Z M 248.265625 365.429688 " fill-opacity="1" fill-rule="nonzero"/><path fill="#474056" d="M 225.527344 388.058594 L 236.808594 376.78125 L 248.085938 388.058594 L 236.808594 399.339844 Z M 225.527344 388.058594 " fill-opacity="1" fill-rule="nonzero"/><path fill="#474056" d="M 236.785156 455.769531 L 304.460938 388.085938 L 315.742188 399.367188 L 248.0625 467.046875 Z M 236.785156 455.769531 " fill-opacity="1" fill-rule="nonzero"/><g clip-path="url(#0c115b80bd)"><path fill="#474056" d="M 214.191406 478.25 L 225.46875 466.972656 L 236.75 478.25 L 225.46875 489.53125 Z M 214.191406 478.25 " fill-opacity="1" fill-rule="nonzero"/></g><path fill="#474056" d="M 282 500.914062 L 349.679688 433.234375 L 360.957031 444.515625 L 293.28125 512.195312 Z M 282 500.914062 " fill-opacity="1" fill-rule="nonzero"/><path fill="#474056" d="M 259.40625 523.402344 L 270.6875 512.125 L 281.96875 523.402344 L 270.6875 534.683594 Z M 259.40625 523.402344 " fill-opacity="1" fill-rule="nonzero"/><path fill="#474056" d="M 377.867188 495.230469 L 445.542969 427.550781 L 456.824219 438.832031 L 389.144531 506.511719 Z M 377.867188 495.230469 " fill-opacity="1" fill-rule="nonzero"/><path fill="#474056" d="M 355.417969 517.863281 L 366.695312 506.582031 L 377.976562 517.863281 L 366.695312 529.140625 Z M 355.417969 517.863281 " fill-opacity="1" fill-rule="nonzero"/><g fill="#474056" fill-opacity="1"><g transform="translate(415.348076, 351.484977)"><g><path d="M 4.125 0.125 C 3.601562 0.125 3.144531 0.0195312 2.75 -0.1875 C 2.351562 -0.394531 2.050781 -0.679688 1.84375 -1.046875 C 1.632812 -1.421875 1.53125 -1.84375 1.53125 -2.3125 C 1.53125 -2.78125 1.632812 -3.195312 1.84375 -3.5625 C 2.050781 -3.9375 2.351562 -4.226562 2.75 -4.4375 C 3.144531 -4.65625 3.601562 -4.765625 4.125 -4.765625 C 4.644531 -4.765625 5.101562 -4.660156 5.5 -4.453125 C 5.894531 -4.242188 6.195312 -3.953125 6.40625 -3.578125 C 6.613281 -3.210938 6.71875 -2.796875 6.71875 -2.328125 C 6.71875 -1.609375 6.484375 -1.019531 6.015625 -0.5625 C 5.546875 -0.101562 4.914062 0.125 4.125 0.125 Z M 4.125 0.125 "/></g></g></g></svg>